<svg viewBox="0 0 61.72 71.69" xmlns="http://www.w3.org/2000/svg"><path d="m30.86 16.85v37.99" fill="none" stroke="#000" stroke-miterlimit="10" stroke-width="4"/><path d="m30.86 0 1.33.88c9.12 6.08 18.14 9.09 27.16 9.09h2.37v29.67c0 19.16-13.74 32.05-30.86 32.05s-30.86-12.89-30.86-32.05v-29.67h2.37c9.02 0 18.04-3.01 27.18-9.09l1.31-.88zm0 5.7-.81.47c-7.34 4.76-15.73 7.66-24.45 8.43l-.85.05v25c0 16.21 11.2 26.97 25.42 27.3h.69c14.55 0 26.11-10.82 26.11-27.3v-25l-.83-.05c-8.72-.76-17.12-3.65-24.47-8.4l-.81-.52z"/><path d="m11.87 35.84h37.98" fill="none" stroke="#000" stroke-miterlimit="10" stroke-width="4"/></svg>