<svg viewBox="0 0 42.25 67.89" xmlns="http://www.w3.org/2000/svg"><g fill="#222" stroke="#222" stroke-miterlimit="10" stroke-width="2"><path d="m35.43 6.9c-3.67-3.8-8.75-5.9-14.31-5.9s-10.63 2.09-14.3 5.89c-3.98 4.13-6.04 10.03-5.8 16.62.46 12.85 8.67 20.87 14.96 23.8l-.73 1.78c-.3.74-.22 1.58.23 2.24.44.66 1.18 1.05 1.98 1.05h7.35c.8 0 1.54-.4 1.99-1.06.44-.65.53-1.49.22-2.23l-.73-1.78c6.29-2.92 14.5-10.94 14.96-23.8.24-6.59-1.82-12.49-5.8-16.61zm-10.44 43.23c-.04.07-.12.1-.19.1h-7.35c-.08 0-.15-.04-.2-.1l-.02-.22 1.07-2.6h5.64l1.07 2.6zm14.09-26.69c-.43 12.03-8.41 19.79-14.38 22.21h-7.15c-5.97-2.42-13.95-10.19-14.38-22.21-.44-12.39 7.67-20.29 17.96-20.29s18.4 7.89 17.96 20.28z"/><path d="m20.31 53.26h1.62v13.63h-1.62z"/></g></svg>