<svg viewBox="0 0 46.38 53.23" xmlns="http://www.w3.org/2000/svg"><g fill="none" stroke="#212121" stroke-miterlimit="10" stroke-width="2.5"><path d="m14.96 1.25v10.05" stroke-linecap="round"/><path d="m32.33 1.25v10.05" stroke-linecap="round"/><path d="m5.69 6.28h34.99c2.45 0 4.44 1.99 4.44 4.44v9.27h-43.87v-9.27c0-2.45 1.99-4.44 4.44-4.44z"/><path d="m30 51.98h-21.26c-4.14 0-7.49-3.35-7.49-7.49v-24.5h43.88"/><path d="m45.07 36.46v-18.2"/></g><path d="m42.96 35.55c.28 0 .43.34.23.54l-13.19 14.07v-14.61h12.95m0-2.5h-12.95c-1.38 0-2.5 1.12-2.5 2.5v14.61c0 1.03.63 1.95 1.58 2.32.3.12.61.18.92.18.68 0 1.34-.28 1.82-.79l13.19-14.07c.77-.82.98-2.02.53-3.05s-1.46-1.7-2.59-1.7z" fill="#212121"/></svg>