<svg viewBox="0 0 82.69 54.15" xmlns="http://www.w3.org/2000/svg"><g fill="#1e1e1e"><path d="m15.86 54.05c-3.15 0-6.31.11-9.46-.02-5.32-.23-7.41-3.11-5.95-8.29 1.52-5.41 5.04-9.27 9.95-11.86 6.99-3.7 14.3-3.88 21.72-1.58 1.2.37 3.45.55 2.67 2.65-.59 1.58-2.24.87-3.51.46-5.2-1.7-10.44-1.94-15.66-.22-5.26 1.74-9.47 4.83-11.55 10.17-1.58 4.06-.61 5.5 3.78 5.59 5.81.12 11.62.01 17.42.08 1.4.02 3.5-.28 3.33 1.88-.14 1.83-2.12 1.09-3.29 1.14-3.15.12-6.3.04-9.46.04 0 0 0-.02 0-.03z"/><path d="m82.31 45.99c-1.23-4.79-4.36-8.16-8.37-10.76-7.59-4.92-16.01-5.44-24.51-3.72-7.43 1.5-13.77 5.13-16.92 12.56-2.74 6.46-.4 9.89 6.62 9.97 5.98.07 11.97.01 17.95.01v-.02c6.48 0 12.97.15 19.45-.05 5.14-.15 7.07-3.01 5.79-8zm-7.39 4.96c-5.98.12-11.96.03-17.95.03-5.82 0-11.63.09-17.45-.03-4.52-.09-5.62-1.95-3.75-6.04.54-1.19 1.32-2.32 2.17-3.32 8.96-10.43 29.72-10.27 38.44.3.84 1.01 1.59 2.16 2.11 3.36 1.71 3.97.73 5.61-3.57 5.7z"/><path d="m56.84 0c-7.17.07-12.11 5.39-12 12.94.11 7.29 5.5 13.06 12.24 13.08 6.84.03 12.49-6.17 12.36-13.55-.13-7.29-5.43-12.54-12.6-12.47zm-.08 22.75c-4.75-.2-8.94-5.18-8.73-10.37.21-5.27 4.17-9.31 9.11-9.31 5.11 0 8.94 4.32 8.85 9.96-.09 5.55-4.24 9.92-9.22 9.72z"/><path d="m22.84 3.9c-6.19.1-10.99 5.38-10.82 11.92.16 6.59 5.07 11.58 11.3 11.5 6.28-.09 10.77-5.1 10.71-11.93-.07-6.71-4.82-11.59-11.19-11.48zm.07 20.17c-4.18-.1-7.72-4.22-7.57-8.8.15-4.42 3.65-8.12 7.72-8.14 4.35-.02 7.84 3.81 7.77 8.53-.07 4.77-3.59 8.51-7.92 8.41z"/></g></svg>