<svg viewBox="0 0 70.93 64.33" xmlns="http://www.w3.org/2000/svg"><path d="m35.5 0c10.95 0 20.56 7.27 23.52 17.81 7.31.77 12.61 7.32 11.84 14.63-.69 6.53-6.04 11.58-12.6 11.9-2.84 7.36-9.06 12.9-16.7 14.86l.44-.11c-.79 3.59-4.34 5.86-7.93 5.07s-5.86-4.34-5.07-7.93 4.34-5.86 7.93-5.07c1.94.43 3.59 1.7 4.5 3.47 8.36-2.6 14.05-10.33 14.04-19.08v-11.16c.17-11.03-8.64-20.1-19.67-20.27s-20.1 8.64-20.27 19.67v20.56h-2.22c-7.35.02-13.31-5.94-13.31-13.29 0-6.84 5.18-12.56 11.98-13.25 2.96-10.54 12.57-17.81 23.52-17.81zm0 55.46c-1.23 0-2.22.99-2.22 2.22s.99 2.22 2.22 2.22 2.22-.99 2.22-2.22-.99-2.22-2.22-2.22zm-24.41-32.99-.33.09c-4.69 1.41-7.35 6.36-5.94 11.06.86 2.85 3.09 5.08 5.94 5.94l.33.09v-17.17zm48.81 0v17.17l.33-.09c4.69-1.41 7.35-6.36 5.94-11.06-.86-2.85-3.09-5.08-5.94-5.94l-.33-.09z"/></svg>