<?xml version="1.0" encoding="UTF-8"?>
<svg id="Layer_2" data-name="Layer 2" xmlns="http://www.w3.org/2000/svg" viewBox="0 0 315.81 315.81">
  <defs>
    <style>
      .cls-1 {
        fill: #fff;
      }

      .cls-2 {
        fill: aqua;
      }

      .cls-3 {
        fill: #4407ea;
      }

      .cls-4 {
        fill: #ed1e79;
      }
    </style>
  </defs>
  <g id="_レイヤー_1" data-name="レイヤー 1">
    <g>
      <circle class="cls-3" cx="157.9" cy="157.9" r="157.9"/>
      <g>
        <path class="cls-4" d="m52.44,224.39v-122.65h17.21v122.65h-17.21Zm11.64,0v-16.37h27.75c9.05,0,16.07-2.35,21.05-7.04,4.98-4.69,7.47-11.32,7.47-19.87v-36.1c0-8.55-2.49-15.17-7.47-19.87-4.98-4.69-11.99-7.04-21.05-7.04h-27.75v-16.37h27.25c14.85,0,26.33,3.84,34.46,11.51,8.13,7.68,12.19,18.49,12.19,32.44v34.75c0,9.28-1.83,17.2-5.48,23.75-3.66,6.55-8.97,11.56-15.94,15.02-6.97,3.46-15.41,5.19-25.31,5.19h-27.16Z"/>
        <path class="cls-4" d="m165.82,224.39v-122.65h17.12v122.65h-17.12Zm10.12,0v-15.94h33.24c9.11,0,15.56-1.74,19.36-5.23,3.8-3.49,5.69-8.07,5.69-13.75v-.25c0-6.07-1.62-10.92-4.85-14.55-3.23-3.63-8.56-5.44-15.99-5.44h-37.45v-15.52h37.45c6.35,0,11.15-1.5,14.38-4.51,3.23-3.01,4.85-7.41,4.85-13.2,0-6.13-1.8-10.71-5.4-13.75-3.6-3.04-9-4.56-16.2-4.56h-35.09v-15.94h38.21c12.09,0,21.09,3.01,26.99,9.03,5.91,6.02,8.86,14.09,8.86,24.21,0,6.13-1.8,11.74-5.4,16.83-3.6,5.09-9.25,8.34-16.96,9.74,7.59,1.13,13.48,4.47,17.67,10.04,4.19,5.57,6.29,11.95,6.29,19.15v.25c0,10.01-3.24,18.08-9.7,24.21-6.47,6.13-15.24,9.19-26.32,9.19h-39.65Z"/>
      </g>
      <g>
        <path class="cls-2" d="m63.34,224.39v-122.65h17.21v122.65h-17.21Zm11.64,0v-16.37h27.75c9.05,0,16.07-2.35,21.05-7.04,4.98-4.69,7.47-11.32,7.47-19.87v-36.1c0-8.55-2.49-15.17-7.47-19.87-4.98-4.69-11.99-7.04-21.05-7.04h-27.75v-16.37h27.25c14.85,0,26.33,3.84,34.46,11.51,8.13,7.68,12.19,18.49,12.19,32.44v34.75c0,9.28-1.83,17.2-5.48,23.75-3.66,6.55-8.97,11.56-15.94,15.02-6.97,3.46-15.41,5.19-25.31,5.19h-27.16Z"/>
        <path class="cls-2" d="m176.72,224.39v-122.65h17.12v122.65h-17.12Zm10.12,0v-15.94h33.24c9.11,0,15.56-1.74,19.36-5.23,3.8-3.49,5.69-8.07,5.69-13.75v-.25c0-6.07-1.62-10.92-4.85-14.55-3.23-3.63-8.56-5.44-15.99-5.44h-37.45v-15.52h37.45c6.35,0,11.15-1.5,14.38-4.51,3.23-3.01,4.85-7.41,4.85-13.2,0-6.13-1.8-10.71-5.4-13.75-3.6-3.04-9-4.56-16.2-4.56h-35.09v-15.94h38.21c12.09,0,21.09,3.01,26.99,9.03,5.91,6.02,8.86,14.09,8.86,24.21,0,6.13-1.8,11.74-5.4,16.83-3.6,5.09-9.25,8.34-16.96,9.74,7.59,1.13,13.48,4.47,17.67,10.04,4.19,5.57,6.29,11.95,6.29,19.15v.25c0,10.01-3.24,18.08-9.7,24.21-6.47,6.13-15.24,9.19-26.32,9.19h-39.65Z"/>
      </g>
      <g>
        <path class="cls-1" d="m56.8,224.39v-122.65h17.21v122.65h-17.21Zm11.64,0v-16.37h27.75c9.05,0,16.07-2.35,21.05-7.04,4.98-4.69,7.47-11.32,7.47-19.87v-36.1c0-8.55-2.49-15.17-7.47-19.87-4.98-4.69-11.99-7.04-21.05-7.04h-27.75v-16.37h27.25c14.85,0,26.33,3.84,34.46,11.51,8.13,7.68,12.19,18.49,12.19,32.44v34.75c0,9.28-1.83,17.2-5.48,23.75-3.66,6.55-8.97,11.56-15.94,15.02-6.97,3.46-15.41,5.19-25.31,5.19h-27.16Z"/>
        <path class="cls-1" d="m170.18,224.39v-122.65h17.12v122.65h-17.12Zm10.12,0v-15.94h33.24c9.11,0,15.56-1.74,19.36-5.23,3.8-3.49,5.69-8.07,5.69-13.75v-.25c0-6.07-1.62-10.92-4.85-14.55-3.23-3.63-8.56-5.44-15.99-5.44h-37.45v-15.52h37.45c6.35,0,11.15-1.5,14.38-4.51,3.23-3.01,4.85-7.41,4.85-13.2,0-6.13-1.8-10.71-5.4-13.75-3.6-3.04-9-4.56-16.2-4.56h-35.09v-15.94h38.21c12.09,0,21.09,3.01,26.99,9.03,5.91,6.02,8.86,14.09,8.86,24.21,0,6.13-1.8,11.74-5.4,16.83-3.6,5.09-9.25,8.34-16.96,9.74,7.59,1.13,13.48,4.47,17.67,10.04,4.19,5.57,6.29,11.95,6.29,19.15v.25c0,10.01-3.24,18.08-9.7,24.21-6.47,6.13-15.24,9.19-26.32,9.19h-39.65Z"/>
      </g>
    </g>
  </g>
</svg>