<svg viewBox="0 0 56.31 56.31" xmlns="http://www.w3.org/2000/svg"><path d="m56.31 28.16c0-15.55-12.6-28.16-28.15-28.16s-28.16 12.61-28.16 28.16c0 14.05 10.3 25.7 23.76 27.81v-19.68h-7.15v-8.14h7.15v-6.2c0-7.06 4.2-10.95 10.64-10.95 3.08 0 6.3.55 6.3.55v6.93h-3.55c-3.5 0-4.59 2.17-4.59 4.4v5.28h7.81l-1.25 8.14h-6.56v19.68c13.46-2.11 23.76-13.76 23.76-27.81z" fill="#1877f2"/><path d="m39.12 36.3 1.25-8.14h-7.81v-5.28c0-2.23 1.09-4.4 4.59-4.4h3.55v-6.93s-3.22-.55-6.3-.55c-6.43 0-10.64 3.9-10.64 10.95v6.2h-7.15v8.14h7.15v19.68c1.43.22 2.9.34 4.4.34s2.97-.12 4.4-.34v-19.68h6.56z" fill="#fff"/></svg>