<svg viewBox="0 0 53.2 54.28" xmlns="http://www.w3.org/2000/svg"><path d="m53.2 27.79c0-1.83-.18-3.73-.47-5.5h-25.6v10.47h14.66c-.59 3.37-2.54 6.33-5.44 8.22l8.75 6.8c5.14-4.79 8.1-11.77 8.1-19.99z" fill="#4280ef"/><path d="m27.12 54.28c7.33 0 13.48-2.42 17.97-6.56l-8.75-6.74c-2.42 1.66-5.56 2.6-9.22 2.6-7.1 0-13.07-4.79-15.25-11.18l-8.99 6.92c4.61 9.16 13.95 14.96 24.24 14.96z" fill="#34a353"/><path d="m11.87 32.34c-1.12-3.37-1.12-7.04 0-10.41l-8.99-6.97c-3.84 7.69-3.84 16.73 0 24.36z" fill="#f6b704"/><path d="m27.12 10.76c3.84-.06 7.63 1.42 10.41 4.08l7.75-7.8c-4.91-4.61-11.41-7.1-18.16-7.04-10.28 0-19.63 5.8-24.24 14.96l8.99 6.98c2.19-6.44 8.16-11.18 15.25-11.18z" fill="#e54335"/></svg>