<svg viewBox="0 0 62.67 62.67" xmlns="http://www.w3.org/2000/svg"><path d="m31.33 0c-17.3 0-31.33 14.03-31.33 31.33s14.03 31.33 31.33 31.33 31.33-14.03 31.33-31.33c-.02-17.29-14.03-31.31-31.33-31.33zm0 58.49c-15 0-27.16-12.16-27.16-27.16s12.17-27.15 27.16-27.15 27.16 12.16 27.16 27.16c-.01 14.99-12.16 27.14-27.16 27.16zm3.13-11.49c0 1.73-1.4 3.13-3.13 3.13s-3.13-1.4-3.13-3.13 1.4-3.13 3.13-3.13 3.13 1.4 3.13 3.13zm8.52-24.02c0 5.28-3.55 9.57-9.55 11.68l-.02 5.03h-4.18l.02-8.17 1.55-.42c2.4-.67 8-2.76 8-8.13-.01-3.68-3-6.65-6.68-6.64-.17 0-.35 0-.52.02-3.46.02-6.47 2.35-7.37 5.68l-4.03-1.15c1.4-5.14 6.07-8.71 11.41-8.71 5.99-.29 11.08 4.34 11.37 10.33 0 .16.01.31.01.47z"/></svg>