<svg viewBox="0 0 279 279" xmlns="http://www.w3.org/2000/svg" xmlns:xlink="http://www.w3.org/1999/xlink"><clipPath id="a"><rect height="279" rx="38.69" width="279"/></clipPath><g clip-path="url(#a)" fill="none"><path d="m106.53 10.87s.9-.51 3.7.27 3.18-4.34 3.18-4.34l2.71-1.8s.56 4.05 6.53 8.49c5.97 4.45 12.35 10.92 16.31 15.51 3.95 4.58 2.09 10.45 3.37 12.55s6.29 3.9 8.69 6.36c2.39 2.46 4.82 8.37 7.58 9.71 2.76 1.35 3.93 4.87 3.93 4.87l3.61 1.41s.71 2.05 2.98 2.22c2.28.17 4.41 2.33 4.41 2.33s3.53 2.55 3.91 5.15 1.15 3.8 2.02 3.58 1.94-3 1.94-3 6.63 3.15 11.72 4.05c5.08.9 8.17 1.7 8.98 2.34.81.63-3.34 2.61-.25 3.41s5.01-5.92 6.09-4.99c1.08.94-2.62 4.45-.4 5.44s6.25 4.43 6.25 4.43 13.45 3.85 15.65 1.15 7.6-6.02 7.6-6.02.73-5.95 3.06-6.64c2.34-.69 3.6-2.31 4.6-4.24s4.63-8.53 4.63-8.53l1.32 9.25s-3.17.34-3.1 3.2c.07 2.87-1.45 4.18-3 5.79-1.55 1.6-3.58 2.02-3.16 4.06.42 2.03-.1 5.27-.1 5.27s-2.19 2.57-1.22 4.93 3.24 6.53 4.9 7.23c1.67.69 6.72 1.93 7.19 3.39.46 1.46-2.75 2.37-2.75 2.37s-1.21-2.95-2.72-1.92c-1.72-3.85-5.38-.68-3.26 1.48 2.13 2.16 12.07 10.9 11.42 12s-4.27-.31-4.27-.31-2.35-3.03-3.02-1.65 1.25 2.38 1.37 4.68 3.22-.33 5.71.42c2.5.76 5.25 2.19 5.32 1.29s-.82-4.39-.82-4.39 4.38-5.11 5.56-5.6c1.18-.48 8.38-1.1 7.97.59s-2 3.86-4.03 4.28-5.1-.66-5.59 2.16-.4 5.41-.4 5.41-1.87 2.15-3.3 2.05c-1.42-.11-3.09-.8-4.84-.36s-4.74 2.22-4.74 2.22-1.68-4.41-3.51-2.83 0 4 0 4-2.58.1-4.39 1.39c-1.81 1.3-3.13-.23-3.13-.23s2.9 3.36 1.09 4.66-4.55-.34-4.55-.34 1.17-4.21-1.74-3.56c-2.91.64-4.56 3.67-2.74 6.09s-.03 4.29-2.51 2.96-4.12-2.31-4.12-2.31l-9.45.16s-1.5-2.97-5.3-1.82-22.82 14.62-25.15 19.03-10.12 16.99-9.5 20.18.37 6.61.37 6.61-1.76 4.45-2.54 7.25-1.09 7.07-1.09 7.07l-5.17-3.53s-1.41-4.11-5.58-5.85c-4.16-1.74-13.41-4.42-18.84-8.26-8.85-4.09-14.6-15.38-16.83-16.12-4.88.21-6.15-1.88-13.14-4.12-6.99-2.23-10.01-3.89-13.02-1.82s-5.08 6.78-7.76 8.3c-2.69 1.52-7.79 8.58-9.05 10.2s-6.69 1.51-7.62-1.42 4.23.88 5.18-.48c.96-1.36-2.11-2.44-2.11-2.44s.53-3.68-2.71-4.21c-3.24-.52-4.07-.87-5.04-3.23s-3.91-5.15-5.48-3.27c-1.57 1.89-2.73 2.09-3.7-.27s-4.16-1.74-4.42 1.68c-.25 3.41-3.77 4.58-5.16 7.92-1.39 3.33-1.55 9.33.69 10.06 2.23.74 1.05 1.22 4.06 3.16 3 1.94 4.41 2.33 6.31 3.61s5.21-.76 7.95.87 4.97 6.37 7.05 9.1c2.09 2.73 3.4 4.26 5.68 4.42 2.28.17.18 1.44 2.07 3.01s4.06 3.16 2.31 3.6-4.43-2.04-5.98-.44-3.58 1.93-5.7-.33c-2.12-2.25-6.83-.49-7.78.82s1.8-5.07-.76-5.26-4.38 5.07-4.38 5.07-3.16-3.71-5.12-.38-1.39 11.1-1.39 11.1l-2.44 2.11s-3.96-.58-5.05 2.49c-1.08 3.07-3.69 3.45-3.69 3.45l-5-2.08s-3.28-5.96-2.76-9.07 4.6-4.24 4.92-8.51c.31-4.27 3.66-10.89 1.13-15.36-2.53-4.48-6.84-4.22-6.84-4.22s-2.14-5.88-4.72-5.78-2.11-10.17-2.11-10.17 3.71-3.73 2.09-9c-1.61-5.27-.97-10.08 4.94-8.79 5.68-3.3 7.45-4.03 7.64-6.59s1.92 5 4.15 5.74 2.13-5.56 2.13-5.56 1.73-.16 3.38-3.18 5.66-3.02 5.93-6.71c.27-3.7-8.07-6.89-8.68-10.37-.6-3.48 1.19-4.49.79-6.81s3.07 1.08 4.44-1.96c1.37-3.05 4.15-1.98 4.15-1.98s-1.37 3.05 1.98 4.15c3.35 1.11 4.2 5.17 6.1 6.46 1.91 1.29 4.92-.78 4.92-.78s3.38-3.18 5.31-2.18 1.75 7.28 6.15 5.89 12.01-7.7 11.02-9.77c-.99-2.08.04-.57.82-3.37s-3.04-5.37-3.04-5.37 2.44-2.11.48-6.54c-1.96-4.44-2.38-6.47-2.38-6.47l3.36-2.9-1.34-1.24s5.09-3.06 5.46-4.17c.37-1.12 4.59-.23 4.56-3.67s2.93-.93 2.96-5.22-1.66-4.7-1.3-9.54 3.51-12.61 4.38-20.56-.65-18.36-2.67-21.94-6.15-5.89-6.26-8.19c-.12-2.3 2.17-6.13 1.85-9.59s.02-8.01 2.05-8.43 1.68 4.41 1.68 4.41z" fill="#727272"/><path d="m18.02 183.14c4.22-.69 2.68 10.21 2.68 10.21s-2.67 1.23-3.69 3.45c-1.02 2.21-6.23-12.47 1.01-13.66z" fill="#727272"/><path d="m119.93 333.41c-1.52-2.69 3.1-3.2 3.1-3.2l-1.96-4.44s-2.51 2.96-4.27-.31c-1.76-3.28 2.51-2.96 1.23-5.06s2.46-2.39 2.46-2.39-.72-5.77-2.34-7.04c-1.62-1.26.31-4.27.31-4.27s-1.32-1.53-4.61-3.49 1.72-3.88 1.72-3.88-.75-1.49-2.57-3.91 1.76-4.45 1.76-4.45l-10.35-14.78s-3.06 2.64-5.25 1.33 1.96-3.29 1.96-3.29-1.81-6.43-2.52-8.48.25-3.41.25-3.41-.48-5.18-1.18-7.24c-.71-2.05.31-4.27.31-4.27s-.11-6.3-.11-14.03c0-7.72 1.47-4.42 1.47-4.42l.35-4.72s-4.29 3.81-7.17 4.17-7.12-4.24-10.46-5.63c-3.33-1.39-1.88-3.37-5.35-4.97-2.21-1.02-1.95 5.15-1.95 5.15s-1.13 1.78-2.15 1.99-1.39 5.33-1.39 5.33l-1.07.92.26 10.03.83.35s1.25-1.48 2.2-2.7 3.97-1.42 5.87-2 2.42-1.82 3.51-3.03 3.29 1.96 3.29 1.96.17-2.28 2.29-3.84 3.61 3.41 3.66 6.56-3.21 4.77-3.21 4.77-.14 5.71-.43 7.84c-.3 2.12-1.75 4.31-5.25 3.33-3.5-.97-8.87-5.8-8.87-5.8l-2.78 2.8s1.08.94-.46 2.4-4.68-.49-6.88-5.66c-2.19-5.17.3-9.85-.83-12.08-1.12-2.23-3.31-1.67-3.31-1.67s-.52 1.25-.76 2.52-1.7 1.73-3.08 1.06-1.61-3.41-2.58-3.77-1.79 4.87-2.01 5.86-2.72 1.95-2.72 1.95l2.2 1.16.17 1.59s1.72-.02 4.23.88-3 1.92-3 1.92l-1.83 1.58-.82 7.23s-3.03 2.35-5.15 3.91-1.99-.15-4.05-1.3-5.2 4.62-7.27 7.47-2.3 3.98-2.3 3.98l2.92 1.07s-.18.56.26 6.17 2.54.47 6.19 3.32c3.65 2.84.3 9.46-5.04 14.07-5.35 4.61-4.09 6.99-5.59 7.88s-2.69-.34-3.92-1.15-2.11 1.42-1.75 2.45 1.83 4.28 1.83 4.28 3.15 1.95 4.76-.51 2.64-.95 2.64-.95l.83-1.51s-.78-1.06-.81-2.63c-.03-1.58 1.22-1.05 2.3-.12 1.08.94 4.65.92 4.65.92s-.46 2.4-1.24 3.2-1.91-1.28-2.92-1.07c-1.02.21 1.27 4.1 1.38 4.54s2.76 1.35 2.77 3.21-1.4 1.47-1.21 2.77.51 6.62.24 10.32-2.5 10.69-2.98 11.37-3.78 2.73-5.2 4.62c-1.43 1.9.49 6.9.49 6.9s-2.75 2.37-4.1 7.14c-1.35 4.76-1.01 9.8-1.01 9.8s-2.09 3.14-3.33 4.47c-1.24 1.34-1.52 3.18-1.78 4.73s-3.22 2.91-3.22 2.91-.07.86-.3 2.22c.14.2.29.39.43.57.61.8 1.24 1.63 1.91 3.02 1.17 2.42 2.96 4.49 4.7 6.5.9 1.05 1.76 2.03 2.52 3.07.17.23.2.54.07.8-.77 1.5-1.51 2.51-2.1 3.32-.82 1.12-1.36 1.86-1.56 3.22-.14.99-.61 2.19-1.1 3.47-.88 2.29-1.87 4.88-1.24 6.68.3.85.65 1.53.96 2.12.82 1.57 1.52 2.93.39 5.76-.5 1.26-.92 2.45-1.33 3.59-.73 2.05-1.35 3.82-2.23 5.39-.9 1.62-1.21 2.98-1.52 4.29-.12.53-.24 1.03-.38 1.52-.05.17-.16.31-.3.41-1.99 1.36-3.39 2.57-4.63 3.63-.62.54-1.21 1.04-1.82 1.52-1.17.93-2.82.85-4.27.77-.97-.05-2.07-.11-2.42.25-.46.46-.39 1.07-.23 2.11.11.73.23 1.55.08 2.41-.21 1.18-.95 1.69-1.49 2.07-.56.39-.87.6-.86 1.43 0 .97.33 1.54.66 2.15.37.67.79 1.43.71 2.59-.06.76-.28 1.37-.48 1.91-.34.91-.59 1.56.03 2.82 1.05 2.14 2.76 6.14 2.83 9.38.42.47.83.89 1.16 1.19.83.76 1.98 1.64 2.61 2.12 1.55-1.29 6.05-5.04 6.5-5.35.28-.19.67-.27 1.3-.4 1.1-.23 2.76-.57 4.5-1.66 1.13-.71 2.25-1.53 3.24-2.25 1.43-1.04 2.57-1.87 3.35-2.13 1.18-.39 5.19-1.63 5.19-1.63.08-.02.15-.04.23-.03.25 0 6.2.08 9.25.69 2.84.57 4.21 3.46 4.87 4.85.12.26.22.47.3.6.27.42.85 1.57 1.52 2.9.68 1.35 1.45 2.87 1.92 3.68.89 1.53 3.99 4.66 5.98 5.49.45.19.62.14.66.12.22-.1.43-.77.59-1.31.18-.57.37-1.21.71-1.8.32-.57.43-1.11.53-1.63.18-.93.38-1.99 1.8-2.72 1.81-.93 3.31.4 4.75 1.68.44.39.9.8 1.38 1.17.14.11.27.18.41.25.4-1.3.7-2.23.87-2.57.9-1.84 4.04-.46 4.04-.46l5.47-4.36s-.58-2.52-.34-5.75c.24-3.22 2.99-4.36 1.4-6-1.6-1.64 1.58-3.32 2.03-4.24s-.87-24.48-1.19-25.26-2.88-2.31-4.07-4.31c-1.19-1.99-.08-6.68-.08-6.68s-.67-1.19-1.5-2.97c-.82-1.78 2.55-.96 2.55-.96s-1.07-1.03-1.4-4.3 6.01-9.08 6.01-9.08-1.17.29-2.76-1.36c-1.59-1.64 2.61-1.72 4.13-4.27 1.52-2.56 2.32-.4 3.22 2.91 1.38-3.14 6.74-.84 6.74-.84s1.88.33 2.97-1.5.68 3.67.68 3.67 1.7 2.8 4.75 2.83.08-1.14-.86-3.88 0-2.67-1.59-4.31c-1.6-1.64-3.06-2.51-1.9-5.29s2 1.29 2.91 1.93 2.7-.37 1.74-2.92-1.74-2.23-.68-3.67c1.06-1.45-.5-.99-1.88-3s1.36-.28 2.99-1.69 1.17-.3 2.33-.59c1.17-.3.36-2.26-.18-2.68s-2.15-1.87-.91-3.12c1.24-1.24.06-3.43.06-3.43s3.55 1.02 3.98.29c.44-.73-.82-1.78-2.4-3.61s-1.31-2.96.47-3.78 1.93 2.24 1.93 2.24l2.14-.61s-1.35-2.39-.68-3.67c.67-1.29 2.98.98 2.98.98s-.79-2.16-.14-3.25 1.79 1.66 1.93 2.24 2.47.18 3.28-.52-.48-1.18-2.65-2.87c-1.54-1.2.92-1.81 2.47-2.06-.52 0-1.18-.07-1.91-.37-1.66-.7 3.32-3.65 3.32-3.65l-.08-1.46s-1.89 2.34-3.48.7c-1.6-1.64 4.79-2.89 4.79-2.89l.14-1.9s-1.78.82-2.94-1.55c-.94-1.92 1.8-1.2 2.88-.85-.29-.2-.64-.67-.77-1.85-.23-2.11 3.6.27 3.6.27l.22-3.04s-1.18.49-2.7-2.2z" fill="#bfbfbf"/></g></svg>