<svg viewBox="0 0 248.05 256.95" xmlns="http://www.w3.org/2000/svg"><g fill="#727272"><path d="m193.65 1.92s.29-.17 1.21.09c.92.25 1.04-1.42 1.04-1.42l.89-.59s.18 1.32 2.14 2.78c1.95 1.46 4.04 3.58 5.34 5.08 1.29 1.5.68 3.42 1.1 4.11s2.06 1.28 2.84 2.08c.78.81 1.58 2.74 2.48 3.18s1.29 1.59 1.29 1.59l1.18.46s.23.67.98.73 1.44.76 1.44.76 1.16.83 1.28 1.69.38 1.25.66 1.17c.29-.07.63-.98.63-.98s2.17 1.03 3.84 1.33c1.66.3 2.67.56 2.94.76.27.21-1.09.86-.08 1.12s1.64-1.94 1.99-1.63-.86 1.46-.13 1.78 2.05 1.45 2.05 1.45 4.4 1.26 5.12.38 2.49-1.97 2.49-1.97.24-1.95 1-2.17c.77-.22 1.18-.76 1.51-1.39s1.52-2.79 1.52-2.79l.43 3.03s-1.04.11-1.01 1.05c.02.94-.48 1.37-.98 1.89-.51.52-1.17.66-1.03 1.33s-.03 1.72-.03 1.72-.72.84-.4 1.61 1.06 2.14 1.6 2.37 2.2.63 2.35 1.11-.9.78-.9.78-.4-.97-.89-.63c-.56-1.26-1.76-.22-1.07.48.7.71 3.95 3.57 3.74 3.93s-1.4-.1-1.4-.1-.77-.99-.99-.54.41.78.45 1.53 1.05-.11 1.87.14 1.72.72 1.74.42c.02-.29-.27-1.44-.27-1.44s1.43-1.67 1.82-1.83 2.74-.36 2.61.19-.65 1.26-1.32 1.4-1.67-.22-1.83.71-.13 1.77-.13 1.77-.61.7-1.08.67-1.01-.26-1.58-.12c-.57.15-1.55.73-1.55.73s-.55-1.45-1.15-.93 0 1.31 0 1.31-.85.03-1.44.46-1.02-.08-1.02-.08.95 1.1.36 1.52-1.49-.11-1.49-.11.38-1.38-.57-1.17-1.49 1.2-.9 1.99c.6.79 0 1.4-.82.97s-1.35-.76-1.35-.76l-3.09.05s-.49-.97-1.74-.6c-1.25.38-7.47 4.79-8.23 6.23s-3.31 5.56-3.11 6.61.12 2.16.12 2.16-.58 1.46-.83 2.37c-.25.92-.36 2.31-.36 2.31l-1.69-1.16s-.46-1.35-1.83-1.91c-1.36-.57-4.39-1.45-6.17-2.7-2.9-1.34-4.78-5.04-5.51-5.28-1.6.07-2.01-.62-4.3-1.35s-3.28-1.27-4.26-.6c-.99.68-1.66 2.22-2.54 2.72s-2.55 2.81-2.96 3.34-2.19.49-2.49-.46c-.3-.96 1.38.29 1.7-.16.31-.45-.69-.8-.69-.8s.17-1.2-.89-1.38c-1.06-.17-1.33-.29-1.65-1.06s-1.28-1.69-1.79-1.07-.89.68-1.21-.09-1.36-.57-1.45.55c-.08 1.12-1.23 1.5-1.69 2.59s-.51 3.05.23 3.29c.73.24.35.4 1.33 1.03s1.44.76 2.07 1.18 1.7-.25 2.6.29 1.63 2.09 2.31 2.98 1.11 1.39 1.86 1.45.06.47.68.99c.62.51 1.33 1.03.76 1.18s-1.45-.67-1.96-.14-1.17.63-1.87-.11-2.24-.16-2.55.27.59-1.66-.25-1.72-1.43 1.66-1.43 1.66-1.03-1.21-1.68-.12c-.64 1.09-.46 3.63-.46 3.63l-.8.69s-1.3-.19-1.65.81c-.36 1-1.21 1.13-1.21 1.13l-1.64-.68s-1.07-1.95-.9-2.97 1.51-1.39 1.61-2.78c.1-1.4 1.2-3.56.37-5.03s-2.24-1.38-2.24-1.38-.7-1.92-1.55-1.89-.69-3.33-.69-3.33 1.21-1.22.69-2.95c-.53-1.72-.32-3.3 1.62-2.88 1.86-1.08 2.44-1.32 2.5-2.16s.63 1.64 1.36 1.88.7-1.82.7-1.82.57-.05 1.11-1.04 1.85-.99 1.94-2.2-2.64-2.26-2.84-3.39c-.2-1.14.39-1.47.26-2.23s1 .36 1.45-.64 1.36-.65 1.36-.65-.45 1 .65 1.36 1.37 1.69 2 2.11c.62.42 1.61-.26 1.61-.26s1.11-1.04 1.74-.71.57 2.38 2.01 1.93 3.93-2.52 3.61-3.2.01-.19.27-1.1c.26-.92-.99-1.76-.99-1.76s.8-.69.16-2.14-.78-2.12-.78-2.12l1.1-.95-.44-.41s1.67-1 1.79-1.37 1.5-.08 1.49-1.2.96-.3.97-1.71c0-1.4-.54-1.54-.43-3.12.12-1.58 1.15-4.13 1.43-6.73.29-2.6-.21-6.01-.88-7.18-.66-1.17-2.01-1.93-2.05-2.68s.71-2.01.61-3.14 0-2.62.67-2.76c.67-.14.55 1.45.55 1.45z"/><path d="m164.68 58.32c1.38-.23.88 3.34.88 3.34s-.87.4-1.21 1.13c-.33.72-2.04-4.08.33-4.47z"/><path d="m150.47 127.09.38.5s-.19 1.34-.33 1.61-1.39 1.33-1.28 1.85c.1.52.29.61.62.65.33.05 1.03.08 1.03.08l.2.41s-.19.95-.77 1.89-.78 1.68-1.47 1.95c-.69.28-1.4.11-1.73.39s-.88.5-.88.5l-.34-.45s.88-.5.93-.91c.05-.42.04-.79.37-1.17.33-.37.27-1.1-.3-1.29-.57-.18-.88.54-.88.54l-.07.88h-.54s.21-2.86.21-2.86 1.31-1.24 1.43-1.58.62-1.1.69-1.1.66-.05.73-.09 1.98-1.82 1.98-1.82z"/><path d="m73.58 160.77.12.91.58.98s1.22-.41 1.41-.46.81-1.72.81-1.72l-1.33-1.6-.46.15-1.13 1.73z"/><path d="m69.88 163.12s.18.48.3 1.02 1.61.99 1.61.99l.95-1.05.05-.75.95-.12-.89-1.03-.98.18.12 1.27-.85.08s-1.07-.77-.43-.91c.63-.14.73.24.68.05s.93-1.65.93-1.65l-1.02-.08s-.99.77-1.18 1.22-.24.76-.24.76z"/><path d="m12.47 193.19.56.51s.46-2 1.04-2.23c.58-.24 1.04-.58 1.14-.6s.04-2.28.47-2.96c.43-.69 1.72-2.56 1.72-2.56s.05-1.06.1-1.37.08-1.06.08-1.06l-.22-.45-1.02.77-.82.16s-.49 1.59-.84 2.12c-.35.54-1.04 1.39-1.04 1.39s-.55.68-.49.78.43.56.61.61c.18.04.48-1.03.48-1.03l.59.48s-.13.96-.13 1.39c0 .44-.03.84-.03.84l-.86-.59-.56-.82-.44.44s.24.08-.07.9-.8 2.78-.24 3.29z"/><path d="m56.6 202.22.78.06s.28-.85.61-.67.41 1.25.41 1.25l.69.43s-.46-1.31.1-1.4 1.72-.08 1.72-.08l.08-1.1s-.96.3-1.45.24c-.49-.07-.86-.22-.96-.07s-.21.76-.55.21-.56-1.29-.56-1.29l-.72.51-.14 1.93z"/><path d="m61.67 200.79.98-.96.23.2s-.27 1.1-.34 1.25-.34.22-.34.22l-.52-.73z"/><path d="m61.46 198.59s1.53-.45 1.33-.68-1.12.01-.85-.69.38-1.35.38-1.35-1.4.9-1.45.67.29-.1.51-.96-.23-1.05-.23-1.05-1.07-.33-1.08.64c0 .97-.71.73-.57.96s.83.56.59.86-.48.21-.4.41c.08.19.48 1.16.57 1.1.1-.06.37-1.19.46-1.12s.75 1.21.75 1.21z"/><path d="m84.24 193.38c.07.44 1.39.27 1.65.12.27-.14 2.25-1 2.38-1.14s-.06-.8-.06-.8-.85.48-1.53.73-.67.18-1.19.31-1.35.16-1.25.77z"/><path d="m68.38 196.31s.85-.1 1.15.25.87.2.94.21c.07 0 .87-.36.46-.57-.41-.22-1.59-.05-1.85-.37s-.53-.46-1.05-.43-1.17-.62-1.22-.28c-.05.35-.65.27.11.67.77.4.75.5 1.44.52z"/><path d="m75.86 194.55c.29.51.39-.18.88.07.5.25.46.36.9-.07.43-.44 1.1-.32 1.18-.8.08-.49.05-1-.26-.96s-.52 1.34-1.04 1.38c-.52.03-.63-.68-.7-.71s-.49.24-.49.24-.73.42-.48.86z"/><path d="m87.65 196.05s.92 1.1 1.42 1.54 1.09.08 1.18.09c.09 0 1.74.13 1.74.13s-.51 1.02-.32 1.38.16.76.16.76-.5.46-.41.88c.09.41.36 1.06.48 1.13s1.12.96 1.12.96l-.21.76s-.91-.32-.91.06.52.57.52.57l.96.95-.25.48-1.52-.11-.23 1.04s-.69-.36-1.06-.08c-.36.29-1.73 1.43-1.73 1.43l-.8 1.07s-1.61-.56-1.43-.11c.19.45.01 1-.13 1.52s-.67 1.67-.67 1.67l.02 2.25-.48.12s-1.79-1.94-2.19-2.47-.71-1.33-1.58-1.83-2.01-.3-2.43-.87c-.43-.56-.77-1.46-1.32-.69-.56.77-1.6.91-1.6.91s-.86.65-1.05.73-.7 1.04-.7 1.04-.75-1.27-1.26-.75-.46 1.12-.46 1.21-.2.14-.2.14-.05-1.06-.42-.66c-.37.41-1.53.89-1.05 1.55s.57.79.52 1.04-.93 1.18-1.36 1.52-.5 2.15-1.13 2.23-.86-1.03-1.43-.48-.71 2.04-.69 2.13c.02.1.21 1.17-.11 1.4s-.57.27-.57.27l.78 1.68-.52.24s-1.15-1.71-1.42-1.51c-.26.2-1.36 1.55-1.36 1.55s-1.07-.3-1.16-.34-.48-1.1-.71-.96-.73.63-.73.63-.05.65-.27.7-1.06-.08-1.06-.08l-.55-.57s-.06-.85-.16-.85c-.09 0-.19-.42-.19-.42l.67-.2-.11.65s.38.81.5.79c.13-.02 1.26-.53 1.26-.53s-.09-.94.12-1.27 1.32-.53 1.38-1.3c.06-.78-.59-.92-.69-.86s-1.19.85-1.19.85l-.47-.38-.55.21-.4-.97.81-.41s.14 1.07.4.87.25-.89.14-1.02c-.12-.13.05-.68-.84-.87s-2.35.48-1.75-.41 1.25-.84 1.64-.69.15-.77.15-.77l-1.2-.71.93-.37s.07.69.42.72c.34.03 1.68-.41 1.27-.66-.42-.25-.94-.32-.94-.32s.17-1.86-.41-2.03-1.41-.1-1.49-.39.09-1.22.09-1.22.67-.69.34-.87-2.97 1.34-2.97 1.34l-.87.34-.78-.06s.33-.69.52-.71 2.42-.7 3.04-1.06 1.66-1.81 2.43-2.04c.77-.22 2.48-.25 2.3-1.11-.19-.86-.33-1.49.27-1.54s.35.37.6-.05.43-2.06.43-2.06-.66-.39-.6-.36c.06.04.63-.95.78-.8.14.15-.14 1 .33.63.46-.37 1.16-1.38 1.16-1.38s1.2.24 1.55-.29c.35-.54.33-1.07.33-1.07l.89.22s.74 1.33 1.29 2.03c.54.7.38 1.03 1.16.93s1.62-.97 1.62-.97.88.38 1.16.3c.29-.07.64-.67.64-.67s.17 1.14.3 1.04 1.16-.12 1.16-.12.45.63.95.27.79-1.8.79-1.8.61.17.62-.73c0-.9.34-1.65-.12-1.81s-1.16-1.22-1.16-1.22.75-.04.75.05.92 1 1.51.74c.58-.27.89-1.06.89-1.06s.57-.15.93-.34.35-1.32.9-1.18c.55.13-.3.32 1.05.58s2.22-.05 2.22-.05l.79-.51.48.38.41.76.97-.41.15.95z"/><path d="m37.3 199.24c.74.24 1.62-.3 1.62-.3l.63.33s-1.59.45-1.21 1.04.67 1.08.67 1.08-.49.29-.29.77 1.33 1.6 1.37 1.74 1.24.93 1.68 1.29.44.99.94 1.25.94-.69.94-.69l.56.09s.19.58.72.43 1.61-.86 1.69-1.28.9-.82.9-.82l1.37.43s1.18 2.36 1.18 2.39c0 .04-1.14 2.07-1.14 2.07s-.52-.51-.92-.26c-.39.25-.54.94-.54.94s-.6.52-1.15.38c-.55-.13-.77-.95-1.13-.55s-.56.61-.14 1.3 1.17 1.3 2.14 1.42 3.03.22 3.03.22l.29.49s.41.78-.08 1.07-.07.88-.07.88l.74-.55 1.77.74-.04.56-.67.18-.51-.04s-.28-.58-.49.29-.62 1.41-.18 1.81c.44.41 1.92.61 1.92.61l.7-.6.18.67s-1.04.11-1.4.51-.9.78-.68 1.03.77.29.77.29l-.12.41s-1.87-.7-1.99.27-.25 1.48-.25 1.48-1.76-.93-1.77-.13.5.83.5.83l-.23.55-1.12-.08s-.75 0-.65.56.75.57.75.57l-.41.53s-.92-.82-.84-.06.6.75.6.75l-.09.6-.7-.05-.45 1.7s-.6.47-.95 1.43-.85 3.17-1.07 3.95-1.08 1.65-1.17 2.3-.19.69-.03 1.07c.16.39-.02.89-.02.89s-.6-.09-.6.56c0 .66-.09.65.15 1.13.25.49.03.89.03.89s-.6-.18-.73.41.28 1.24.28 1.24l-.35.35-.48-.5-.25.82s-.9.07-.6.47 1.01.96.77 1.04-.81.17-.81.17l-1.74-1.11-.2-.44s-.5-.79-1.62-.21c-1.12.57-1.58 1.1-.99 1.43.58.32 1.37.48 1.37.48l-.43.81-.28.63s-.17-.29-.91.31c-.75.6-.81 1.2-1.39 1.58s-1.11.57-2.01.69l-.9.12-1.21 1.17s-.18-1.42.13-1.72c.3-.31 1.48-.97 1.48-.97s-.41-.83-.05-1.27.52-1.32.52-1.32l-.21-.3s.5.27.45-.43c-.04-.71-.91-2.22-.91-2.22l-.15-1.13s.53.37.91-.31c.38-.67.54-.29.63-.89s-.26-2.22-1.19-2.34-1.92.05-1.96 1.12c-.03 1.07.44 1.06.44 1.06s1.32-.09 1.18.51-.5 1.04-.95.82-.59-.93-1.01-.96-.63.23-.85 1.34-.78 2.89-.25 3.4c.52.51 1.59.63 1.59.63l.12.85s-.5 1.04-.43 1.33-.27.54-.27.54-.2-.53-.57-.51c-.38.02.04.05-.88-.77s-1.64-.59-1.88-.56-1.37-.43-1.37-.43-.63.33-.82.27c-.18-.06-.68-.99-.62-1.12.06-.14-.55-.84-.55-.84l-.65-1.31.87-.4s-.8.03.2.44c1 .4 2.27-.3 2.6-1.59s1.2-1.69.33-2.5c-.88-.81-.58-1.03-.91-1.61-.33-.59-1.1-1.02-1.09-1.16s.35-1 .35-1 .48.46.74.1-.39-1.01-.39-1.01l.44-2.17s-.47-.55-.61-.65c-.13-.1-1.12-1.91-1.07-2.05.06-.14.68-1.03.82-.92.13.1.78.24.9.44s.77.99.34 1.15-1.54-.07-.69.42c.85.48 1.39.2 1.39.2s-.13.46.24.53 1.6-1.33 1.65-1.47c.06-.14 1.29-1.03 1.81-1.65.51-.62 1.17-2.49 1.17-2.49l.02-1.5.79-.6s1.36-1.3.69-1.73c-.67-.42-1.7.2-1.7.2s-.75-.06-.8.08c-.06.14-.4-.31-.4-.31l1.44-1.06 1.24-.33-.14-1.27s1.17-.57.51-1.13-1.89-1.08-2.02-1.23-1.35-2.07-1.35-2.07 1.34-1.63.43-2.03c-.91-.39-1.23.24-1.61-.4-.37-.64-.16-.95-.84-.72-.67.23-2.84 1.01-1.88 2.06.95 1.05 2.27 1.62 1.77 2.1s-2.57-.05-1.99.93 1.09 1.06 1.86.75c.77-.32 1.65.5 1.73.74s-.39 2.17-.43 2.64c-.03.47-.56.66-1.06.44s-.79-.67-.98-.07-.07.88-.36 1-.68-.89-.68-.89l-.05-.66s1.23.42 1.18-.76c-.05-1.17-1.15-2.24-1.65-1.81s-.79.5-.79.5-1.26-.65-1.49-.11c-.23.55-.85.78-.85.78s-.32.58-.88 1.11c-.55.52-1.69 1.33-1.69 1.33l.03-.47s1.68-1.23 1.39-1.68c-.3-.44-1.19-1.07-1.19-1.07s.41-.44-.25-1-1.42-1.7-1.46-1.84.11-1.54.11-1.54 1.12-1.18 1.23-1.45.82-.31.83.11c.02.42 1.84 1.68 1.84 1.68l-.35 1.61s-.72-.38-.72.27-.18 1.77.45 1.58c.62-.19.89-1.34 1.26-1.17.36.17 1.38.99 1.46.48s-1.09-2.33-1.09-2.33.58-.89-.01-1.12-1-.4-1-.4l-.64-.8-.79-.11s.59-.42.16-.92-1.26-.05-1.26-.05l-.65-.05s.96-.3.69-1.07-.91-.3-.91-.3l-.55-.18s.61-.61.73-1.02.19-1.3.19-1.3.55-.43.68-.37c.14.06.18.67.89.58s1.58-.48 1.75-.19-.39 1.51-.26 1.61 1.03.03 1.15-.29.28-1.9.1-2.05-1.64-.64-1.64-.64.58-.82.81-.77 1.68-.5 1.68-.5l.42.65.07 1.02 1.01.31s1.01-1.56 1.47-1.53c.71-.09.76-.74.76-.74l-1.33-.38.31-.45 1.3-.51.54.32s-.58.28-.04.56c.54.27.48.46.98.63.5.18 1.69-.11 1.69-.11s.42-.58.36-1c-.06-.43-.55-.74-.7-.61s-.77.88-.77.88l-.2-.48 1.78-1.32.4-.39.57-1.96s.72-.81 1.02-.55.81 1.03 1.21.71c.4-.31.86-.84 1.09-.78s1.58.41 2.1.58z"/><path d="m28.94 221.9s.83.86.45 1.49c-.37.63-.57.8-.63.98s.01 1.12-.1 1.3-1.55 1.38-1.55 1.38l-.56-.04s-.13-.71.05-.7c.19.01 1.24.14 1.31-.42s-.47-1.46-.47-1.46-.27.75-.85.9c-.58.14-.84.45-.84.45s-.84.55-.94.68-.47.62-1.04.77-1.33.32-1.36.7c-.03.37.22 1.51-.3 1.57s-1.03-1.9-1.03-1.9 1.01-.39 1.54-.54.07-.93-.31-.91-.81-1.04-.81-1.04.98-1.29 1.14-1.44c.15-.15-.02-1.01-.02-1.01s.33.02.46.08c.14.06 1.28-.89 1.41-.74s.98.91.98.91-.44 2.97-.2 2.77.67-1.01.68-1.15-.96-.91.1-1.4c1.07-.48 2.13.39 2.52.09.4-.3.38-1.33.38-1.33z"/><path d="m19.07 233.11c.17.03.89.58 1.15.88s.22.77-.07.88c-.29.12-1.01-.87-1.19-.32s-.31 1.01-.31 1.01-.37-.07-.63.23c-.26.31-1.59 2.51-1.59 2.51s-.39-1.01-.63-1.03c-.23-.02.43-1.42.43-1.42s.47-.06 1.28-.8c.8-.74.44-2.17 1.55-1.95z"/><path d="m7.72 208.39c.55-.28.99.1 1.44.82s1.03 1.23.55 1.91-.88 1.4-.88 1.4 1.07-.33.91.22-.38 1.03-.5.99-.75-.77-.98-.2-.13.96-.06 1.28-.52.71-.7.67-.4-.09-.25-.39.29-1.54.08-1.52-.41.97-.42 1.09c0 .12-.82-.31-1.1.04s-.42.59-.62.77c-.2.17-1.03.05-1.15.32-.11.27-.83 1.09-.11 1.43.72.33.88.31 1.07.77.19.45.75.43.65.55s-1.09.36-1.19.41c-.1.06-.32-.74-.81-.43s-.7.57-.7.57.59-.36.41.4c-.18.77-.28.82-.5.81-.22-.02-.35-.31-.38-.36s.45-.54-.25-.41c-.7.14-1.09-.02-1.19 0s-.23.61-.5.4-.52-.54-.52-.54.4.03.49-.28.49.16.09-.31-.8-1.06-.46-1 .2.61.56.39.23-.98.26-1.42c.03-.43.41-1.81.57-1.77.15.04.63.8.63.8s-1.26.59-.13.43c1.14-.17 1.75-.84 1.75-.84s.25.46 1.12-.29.95-1.08 1.51-1.39.99-1.11 1.34-1.27c.36-.16 1.39-1.49 1.16-2.19s-.67-1.11-.85-1.22-.6-.51-.33-.65z"/><path d="m9.4 207.23c.49-.52.97-.4 1.29-.09s.21 1.34-.44 1.32-1.29-.76-.85-1.22z"/><path d="m11.91 210.42c.07.14.75.43 1.66-.03s2.23-2.74 2.66-3.05-.23-1.54-.23-1.54-.72 1.72-1.04 1.45-.41.03-.43.38c-.03.34-.46.34-.66.86s.4.87-.34 1.19-1.91.14-1.62.75z"/><path d="m17.73 199.26c-.04 1.23 1.06 1.67 1.52 1.42s.87-1.28.5-1.65c-.38-.37-1.97-1.24-2.01.23z"/><path d="m180.05 172.78c-.67-.24-1.76-.69-1.35-1.1s1.46.48 1.46.48l1.32.72-1.03-2.07s-1.55-2.74-1.44-3.35c.11-.62-.56-1.73-1.04-2.76-.49-1.03 1.68-1.62 1.03-2.17s-.27-1.39.1-2.18c.28-.58 1.21-4.03 1.79-6-.1-.04-.19-.1-.29-.17-.17-.13-.33-.27-.48-.41-.49-.44-.73-.61-1-.48-.25.13-.28.27-.33.54-.04.19-.08.43-.23.69-.08.15-.14.32-.19.49-.09.3-.19.61-.46.73-.17.08-.37.07-.62-.03-.77-.32-1.86-1.44-2.2-2.01-.16-.28-.42-.78-.64-1.23-.2-.39-.4-.79-.47-.9-.03-.05-.08-.14-.13-.25-.19-.41-.56-1.17-1.24-1.31-.88-.18-2.62-.21-2.9-.21-.22.07-1.31.4-1.65.52-.18.06-.56.34-.96.63-.33.24-.7.51-1.09.75-.64.41-1.27.54-1.64.61-.1.02-.22.05-.25.06-.11.07-1.43 1.17-2.23 1.84-.09.07-.21.08-.31.01-.03-.02-.64-.46-1.05-.84-.13-.12-.3-.29-.47-.48 0 0 0 0-.01-.01-.36-.41-.75-.92-.92-1.32-.12-.27-.36-.5-.53-.63-.23.37-.7.99-1.29.98-.19 0-1.17 0-1.32.72-.05.24-.03.46-.01.67.03.36.06.76-.37 1.01-.27.15-.53.16-.75.17-.25 0-.34.02-.42.13-.17.26-.26.63-.33.88-.03.13-.05.22-.08.3-.11.25-.39.41-.45.44-.04.02-.1.04-.14.03 0 0-.84-.09-1.53-.11s-1.67.36-1.79.82c-.06.23-.05.39-.04.52.02.2.04.5-.39.63-.32.1-.68.39-.75.49 0 .06-.03.12-.06.22-.08.25-.24.77-.08 1.03.28.46.26 1.1.06 1.38.02.06.07.15.11.21h.02c.3-.12.92-.36 1.46-.21.72.2 1.09 1.42 1.13 1.55v.04c.03.26.05.9-.28 1.1-.09.05-.24.26-.36.45.17.17.39.47.34.81-.06.35-.49.87-.7 1.1l.07.26 1.8 2.19c.05.06.07.13.05.21l-.18.94c.57.73 1.19 1.52 1.27 1.6 0 0 1.86 1.45 2.94 2.5 1.25 1.21 1.85 1.81 1.85 2.31 0 .07 0 .16.02.26.04.46.11 1.14-.46 1.54-.17.12-.42.23-.69.35-.73.32-1.27.6-1.12 1 .17.44.35.59.48.7.12.1.3.25.22.54-.06.22-.27.34-.47.46-.28.16-.46.29-.48.52-.03.37-.06.84 1.38 1.04.05 0 .1.02.15.03.29-.33.93-.95 1.8-1.19 1.21-.35 3.52-.3 4.75-.02s.26 1.52.81 1.75c.54.23.17 1.14.17 1.14l.75.05s.02-.31-.18-.89c-.21-.58.64-1.01.64-1.01s-.53-.41-.98-1.13.05-2.43.22-3.04 1.42-1.52 1.42-1.52-.37-.9-.13-1.63 1.25-.35 1.25-.35 1.03-.05 1.85-.11c.22.39 1.72 1.25 1.59 2.18s-.63.14-.76.94c-.12.8-2.06.85-2.02 1.97.04 1.13-1.12 1.23-1.12 1.23s.82 1.06.24 2.14-.19.86.05 1.06c.23.2.01 1.5-.04 2.24-.05.75-.99.74-.63.95s1.22 1.28 1.22 1.28.79-.57.97-1.24c.17-.67.33-1.1.93-1.62s1.01-.18 1.74-.68c.72-.51.46-1.15.9-1.24s.23 1.08.81.93c.57-.15 1.82-1.86 1.97-2.48.15-.61.73-1.19.73-1.19s-.39-.65-.52-1.47 1.25-2.59 2.16-3.84c.9-1.24 1.49-1.51 2.47-1.38s2.11.22 2.36-.64c-1.08.23-2.12-.84-2.79-1.08z"/><path d="m87.31 188.15c-.07-.31-.33-1.5-.51-2.23-.23-.89-.19-1.37-.1-2.29.07-.71.58-1.04 1.03-1.33.22-.14.42-.27.59-.44.41-.41.61-1.55.66-1.95.01-.13.12-.22.25-.22.42.01.88-.07.96-.16.04-.08.13-.23.23-.41.26-.45.71-1.21.84-1.62.14-.45-.17-1.08-1.04-2.09-.06-.07-.07-.16-.05-.24.32-.99-.7-2.09-.71-2.11-.02-.02-.04-.05-.05-.07l-.03-.06c-.7.16-1.22.85-2.46 1.26-1.39.46-2.19-.16-2.98-.17-.8-.01-.83.45-1.49.5s-5.39-.54-5.39-.54-1.12 1.18-1.59 1.29-.87-.86-.87-.86-.82-.34-1.01-.87c-.2-.53 1.58-1.05 1.58-1.05l-.42-.64s-.71.13-1.53.45c-.82.31-.62-.47-1.44-.76s-1.48 1.06-1.63 1.14-1.05.86-2.07.83c-1.03-.03-.88-.16-1.91.47s-.57.05-.71.04-.23.59-.23.59 1.01.92.6 1.4-2.13 1.62-2.27 1.61-.66 0-1.02.44-1.72 1.14-1.87 1.17c-.14.04-.5.38-.68.93s-2.56 2.29-2.7 2.38-.57.71-1.22 1.36c-.66.65-1.06.44-2.06.64-1 .21-1.48 1.72-2.16 1.99-.68.28-.79-.06-1.67-.17s-1.25 1.03-1.67 1.66c-.42.62-.56.66-1.48.97-.1.7-1.49 1.76-2.07 2.09s-1.31.04-1.77-.18c-.45-.22-1.24-1.03-1.24-1.03l-.76.08-1.36-1.18-.7.6-.04.51.74.15s.74.1.82.34-.57.75-1.37.74-.8-.57-.93-.68c-.13-.1-.39.06-.39.06s.3.54.4 1.01c.11.48-.39.81-.55 1.08s1.11.78 1.25 1.4-1.08.62-1.08.62l-.23 3.07s.74.1 1.21.14c.47.03.21-.36.57-.8s1.04-.16 1.04-.16.87.95 1.24 1.03.73.85.73.85 1.3.1 1.73-.01 1.12-1.23 1.19-1.5c.07-.28.26-.92.82-.92s-.22 1.06-.68 1.54-.04.61-.04.61l.61.56h.61s0-1.31.35-1.57.54.93.54.93.31.3.49.32.38-.67.95-.77.41 1.39.41 1.39l.41.22s.17-1.63.51-1.84.18 1.37.17 1.51.23.02 1-.16c.76-.18-.08 1.12-.08 1.12s.74-.46 1.12.08 1.13.55 1.99.9c.86.34 1.38 1.55 1.38 1.55s-.31-.82-.8-1.84.8-.69 1.6-1.38.15-1.3.21-2.79.4-1.61.63-2.25 1.11-1.65 2.79-1.67c.58-.94 1.57-.4 1.71.36.13.76-.26.36-.08 1.07.18.72 1.53 1.52 2.17 1.71s.42.64.93 1.38.64.19 1.51-.12.18-.6-.38-.59c-.56 0-.87-.21-1.09-.5-.21-.3-.23-.72-.09-1.27.13-.55.78-.41 1.69-.63.91-.21 1.72.22 2.79-.31s.26-.4 1.39-.37c1.12.04.95-.21 1.8-.24s1.7 1.06 1.75.93c.05-.14.28-.54.36-.96s-.45-.88-.08-1.41.79.06 1.8.37.64-.47 1.77-.57 1.48 2.12 2.22 1.71 2.03-.22 2.03-.22.54-.94.41-1.09-.27-.11-.95.21-.01-1.12.77-1.58 1.62.87 1.62.87 1-.25 1-.82-.04-.71.91-.87 1.15-1.04 1.15-1.04-.55-.1-1.21-.59c-.59-.44.15-.17.99-.06z"/><path d="m124.98 195.62c-.71-.55-1.47-1.17-2.74-1.83-1.26-.66-.67-1.11-.98-1.13s-.53.4-1.38-.1.3-1.29.17-2.05 1.73-2.31 2.15-2.96c.42-.66.61-2.33.61-2.33s.18-.01.4-.04c-.38-.87-.96-1.22-1.06-1.28-.39-.22-.99-.27-1-.27l-2.09-.41c-.12-.02-.21-.14-.2-.26l.07-.88c-.1-.16-.42-.6-.71-1-.07-.09-.06-.22.01-.31.08-.1.51-.59.84-.74.04-.09.02-.36-.03-.61l-.55-.4s-.06-.05-.08-.09l-.08-.16c-.06-.12-.02-.26.09-.32l.25-.16.14-1.84c-.12-.04-.32-.1-.57-.1-.15 0-.28-.06-.38-.17-.29-.3-.33-.97-.33-1.24l-.9-1.11c-.21-.07-.45-.11-.51-.07-.06.08-.14.59-.15 1.06 0 .06-.02.12-.06.16 0 0-.62.71-.85.97-.16.18-.51.28-1.06.41-.26.06-.65.16-.73.23-.28.24-2.74 2.45-3.06 2.79-.46.48-1.61.42-2.45.12-1.06-.38-2.35-1.25-2.52-2.47-.14-.97-.18-1.8-.19-2.07l-.49-.53c-.49.46-.73-.17-.73-.17l.13.71s.99.59-.04.61-.46 1.09-.83 1.11c-.38.02.02-.93.02-.93s0-.52-.15-.53c-.14-.01-.31.35-.76.08s.27-.5.27-.5l-.44-.41-1.32 1.35s-.21-.3-.28-.68 1.25-1.08 1.25-1.08.26-.4.19-1.34.64-.37.64-.37.74.1.81-.17c.07-.28-1.2-1.45-1.2-1.45s-1.94.89-2.19 1.1c-.25.22-.62.14-1 .16s-.87.97-.87.97-.6.52-1.02.44-.46-1.39-1.5-1.28-3.36-.15-3.36-.15-1.37.76-2.26.94c.28.34.98 1.32.74 2.33.94 1.12 1.25 1.83 1.06 2.46-.14.46-.59 1.22-.88 1.72-.1.17-.18.31-.22.39-.18.34-.78.41-1.19.42-.07.47-.28 1.53-.77 2.03-.21.21-.45.36-.68.51-.47.3-.76.51-.8.96-.09.88-.11 1.31.09 2.12.19.74.45 1.92.52 2.24l.19.16c.66.03 1.02.02 1.02.02l1.42-.58s.66.42.98.26 1.99.08 3.09.48c1.09.39 1.18.96 1.36 1.04s.57.73 1.43.92-.03 1.25-.29 1.35c-.26.11-2.68 2.43-2.71 2.92-.04.5-1.11.61-1.11.61l-.75.82.66 1.17-.11 1.55.52-.27s.95-.18 1.15-.29.59-.39.67-.58c.08-.18.82-.06.82-.06l.6-.46-.86-1.06.11-1.55 2.36-2.39.08-1.12 1.76-.18.87-.81s1.18-.79 1.92-.67 1.87.89 1.87.89.35 1.21-.27 1.98-1.99 1.6-1.99 1.6 0 .94-.72 1.32-.68.7-1.38.9-1.41.52-1.41.52l-.32.98s.66 1.23 1.03 2.14c.37.9-.8.69-.8.69s.01.69.35 1.21-.39 1.03-.39 1.03-.4.41-.45.97c-.04.56-.86 1.5-.86 1.5s.84-.44 1.53-.45.57 1.54.57 1.54h1.69s1.58.62 1.7 1.44c.13.82-.9.31-.9.31s-.09.43-.07.99.75 1.68 1.07 1.64.64.67 1.04 1.14 1.84.45 2.56.81c0 0 .04 1.13.31.83.27-.29 1.97-.48 1.97-.48l-.35-.34s-.2-.7.07-.93.99.14 1.27-.28 1.07-.92 1.07-.92l-.18-.95.87.06-.78-1.31 1.09-.36s.35-2.16 1.05-2.36 1.04-.8 1.04-.8-.48-.91.08-1.12.76.87.76.87.58-1.08.53-1.27-.31-.83-.95-1.51c-.64-.67.64-1.08.92-.62s1.25.78 1.25.78l.22-.42s.04-.5-.55-1.04c-.58-.54.77-1.07 1.8-.68.05-.75 1.23-.6 1.39-1.08.16-.49 1.13-.04 1.13-.04l.63-.14-.2-1.51s.9-.31 1.38-.02-.25.79-.25.79.29.33.59.48 1.46-.39 1.46-.39.4.53-.2 1.05-.89.25-.53.46 1.45-.21 1.8-.74c.35-.54-.32-1.65-.32-1.65s.49-.65-.22-1.2z"/><path d="m156.54 185.9c-.36-.15-.23-1.14-.23-1.14s.52-.34.84-.38.85-.5.85-.5l-.52-.7c-.09-.02-.17-.03-.25-.04-1.33-.19-1.87-.66-1.8-1.57.04-.5.45-.75.72-.91.07-.04.18-.1.22-.15-.01-.01-.03-.02-.04-.03-.16-.13-.42-.34-.64-.91-.33-.87.66-1.31 1.39-1.63.24-.11.47-.21.6-.3.31-.22.3-.61.25-1.09-.01-.11-.02-.22-.02-.3 0-.31-.87-1.14-1.7-1.95-1.07-1.03-2.9-2.46-2.92-2.48-.03-.02-.11-.09-1.42-1.77-.04-.06-.06-.13-.05-.2l.18-.93-1.76-2.14s-.04-.06-.05-.09l-.12-.45c-.02-.08 0-.18.06-.24.25-.26.64-.74.67-.94.03-.16-.21-.4-.32-.48-.1-.07-.13-.21-.07-.32.06-.1.37-.63.64-.8.04-.05.06-.35.04-.6-.13-.42-.44-1.09-.78-1.19-.38-.11-.9.1-1.15.2-.14.06-.21.08-.29.08-.29-.02-.49-.55-.51-.64-.06-.23.03-.35.1-.41.05-.1.1-.49-.09-.81-.27-.45-.08-1.09.03-1.43.02-.07.04-.12.04-.15.02-.33.68-.77 1.1-.89.02 0 .03-.01.05-.02 0-.03 0-.06 0-.1-.01-.15-.03-.38.05-.69.22-.8 1.49-1.21 2.29-1.19.59.02 1.26.08 1.49.11.07-.05.14-.11.16-.16s.04-.13.06-.22c.07-.28.17-.71.4-1.04.23-.34.55-.35.82-.35.18 0 .35 0 .51-.1.15-.08.15-.18.12-.54-.02-.22-.04-.5.02-.81.18-.85 1.05-1.13 1.82-1.11.4.01.85-.7.98-.95.03-.06.09-.11.15-.13.07-.02.14-.01.2.02.03.02.67.4.94 1.01.07.15.18.33.31.51-.17-.79-.54-1.61-.78-2.11-.3-.61-.15-.98-.03-1.32.06-.16.12-.31.13-.49.02-.23-.06-.37-.17-.57-.12-.22-.28-.5-.28-.94 0-.54.29-.74.5-.88.17-.12.25-.18.28-.35.04-.2 0-.42-.03-.63-.06-.37-.12-.78.22-1.12.27-.27.71-.25 1.17-.23.41.02.83.04 1.06-.15.19-.15.38-.31.58-.49.4-.34.85-.73 1.48-1.17.03-.12.06-.25.09-.38.1-.44.22-.94.55-1.53.27-.48.46-1.04.7-1.69.13-.38.27-.77.44-1.19.29-.72.15-.98-.11-1.47-.11-.21-.23-.45-.34-.76-.27-.76.09-1.7.41-2.53.15-.39.29-.76.33-1.03.08-.57.32-.9.6-1.28.17-.24.37-.5.57-.88-.22-.28-.46-.56-.71-.85-.59-.68-1.2-1.39-1.61-2.24-.16-.32-.3-.54-.45-.74 0 .03-.01.06-.02.1-.2.87-.83 1.06-.89 1.85s-.19 1.25-.57 1.97-.13 1.82-.13 1.82-1.48.97-1.61 1.52-.41 1.09-1.85 1.64-3.65 1.88-4.28 2.73c-.62.84-1.12 2.49-1.32 3.27s-2.6 2.2-2.92 2.72-.49 1.62-1.55 2.01-1 .82-2.03 2.1-1.97 1.35-2.96 1.37-1.42.18-3.12 1.64c-1.64.07-3.07 1.65-3.07 1.65s-2.28-.21-3.23.04c-.96.26-.95.77-.81 2.05.14 1.27-1.17 1.32-2.34 1.19-1.16-.13-1.85-.28-2.46-.98-.6-.7-1.39-.2-1.54-.68s.46-1.09.46-1.09.8-.74.91-.87c.1-.13-.3-1.66-.3-1.66l-.57.15-.57.71s-.79-1.37-1.01-1.57-.38-.5-.28-.63.19-.73.42-1.23c.22-.5.34-.21.44.41s-.23 1.17-.23 1.17l.5.25s1.25.14 1.46-.11.47-1.34.47-1.34l.6-.56s.25-.92.77-1.49 1.09-.2 1.1-.34.19-.64.1-1.4c-.08-.76.62-.14.62-.14s.94-.07.96-.3.52-1.27.52-1.27-.8-.62-1.02-.73c-.23-.11-.38.02-.38.02s-1.03.06-1.75.18-1.16 1.06-1.3 1.09c-.14.04-.71.79-1.55.73s-1.32.18-1.97.74-1.53.4-1.53.4-.04 1.21-.1 1.35-1.35 1.82-1.35 1.82l.69.87.52-.73s.42.69.41.8c0 .11-.59 1.06-.59 1.06l.89.67s.17.81.13 1.37-.49.95-.49.95.3.4.18.76c-.12.37-1.73 1.93-1.73 1.93s-.28.64-.34 1.47c-.06.84-1.72 2.36-1.72 2.36s-3.25 3.46-4.03 3.82c0 0-1 .25-1.28.23s-.25.82-.25.82l-.88.54-.84 1.86-1.47 1.48s.08.85.55 1.4 2.15 1.94 2.15 1.94v1.45s-.99 1.24-1.26 1.08-.35-2.23-.35-2.23l-.82.31s-.22.5.02.94c.25.44-.27.54-.27.54s-.77.97-1.2 1.08-.66-.56-.66-.56l-.39.21s.14.62-.08 1.12-.96-.3-.96-.3l-1.01.35s.61.61-.11.83c-.72.23-.5-.79-.5-.79s-.85.08-1.45-.67-.11-.99-.39-1.01c-.26-.02-.3.19-.82.95l.61.66s.06.1.07.16c0 0 .02.97.18 2.11.14.99 1.27 1.73 2.2 2.07.85.3 1.69.24 1.93 0 .35-.36 2.84-2.59 3.1-2.82.16-.14.46-.22.93-.33.27-.07.72-.18.81-.26.19-.21.63-.71.79-.9.02-.54.09-1.18.35-1.37.32-.23.88-.04 1.05.03.04.02.07.04.1.07l1 1.23s.06.1.06.16c0 .31.05.83.19.98.02.02.03.02.03.02.55 0 .93.21.95.22.09.05.14.14.13.24l-.16 2.14c0 .08-.05.15-.12.19l-.12.07.48.35s.08.08.09.14c.08.32.22 1.09-.22 1.27-.13.05-.36.27-.54.46.7.97.7.98.69 1.09l-.05.74 1.84.36s.68.05 1.18.33c.12.07.87.53 1.31 1.62.13-.04.25-.09.31-.15.27-.23.47-1.34 1.09-1.23s-.21 2.04-.52 2.77c-.3.73.38 1.59.42 2.72s-.12.74.64 1.23c.75.49 1.39.91 1.39.91s-.76-.74-1.14-1.52.09-2.93.61-3.14.99.07.7.61-.37 1.6-.14 1.86c.23.27 1.42 1.1 2.51.68.01-1 .83-1.12 1.8-.74s.14 1.45.14 1.45.43.03.52.6c.08.57-1.11-.21-1.11-.21s-1.54.57-2.27 1.08c-.72.51-.92-.25-.92-.25l-.97 1.3s.53.48.78.37c.26-.11 3.96-1.14 4.85-1.39s1.66-.5 1.66-.5.15-1.18.73-1.38c.58-.21.49 1.78 1.46 2.17.97.38 3.23-.57 4.39-.24 1.16.34 2.94 1.65 3.31.87-.8-1.06 1.47-2.14 2.26-2.77.8-.63.04-1.37.17-2.3s2.17-.65 1.97-1.29c-1.1-1.2.83-2 1.93-2.42 1.09-.42 3.28.37 3.23 1.55s-1.8.18-1.8.18l-.18 2.42s.29 1.15.43 1.84c.14.7-.64 1.01-.64 1.01s1.28 2.09 2.25 2.48c.22-.48 2.12-.78 2.12-.78s-.04-.25-.22-1.26 1.62-1.69 1.62-1.69l.75-1.69s-.38-.78-.95-1.51-.01-.69-.38-.84z"/><path d="m198.04 107.51c-.5-.88 1.01-1.05 1.01-1.05l-.64-1.45s-.82.97-1.4-.1.82-.97.4-1.66.81-.78.81-.78-.24-1.89-.77-2.3.1-1.4.1-1.4-.43-.5-1.51-1.14.56-1.27.56-1.27-.25-.49-.84-1.28c-.6-.79.58-1.46.58-1.46l-3.39-4.84s-1 .86-1.72.44c-.72-.43.64-1.08.64-1.08s-.59-2.1-.83-2.78c-.23-.67.08-1.12.08-1.12s-.16-1.7-.39-2.37.1-1.4.1-1.4-.04-2.06-.04-4.59.48-1.45.48-1.45l.11-1.55s-1.4 1.25-2.35 1.36-2.33-1.39-3.42-1.84c-1.09-.46-.62-1.1-1.75-1.63-.72-.33-.64 1.69-.64 1.69s-.37.58-.7.65-.46 1.75-.46 1.75l-.35.3.09 3.28.27.11s.41-.48.72-.88 1.3-.47 1.92-.65c.62-.19.79-.6 1.15-.99.36-.4 1.08.64 1.08.64s.05-.75.75-1.26c.69-.51 1.18 1.12 1.2 2.15s-1.05 1.56-1.05 1.56-.04 1.87-.14 2.57-.57 1.41-1.72 1.09-2.9-1.9-2.9-1.9l-.91.92s.35.31-.15.78c-.5.48-1.53-.16-2.25-1.85s.1-3.22-.27-3.95-1.08-.55-1.08-.55-.17.41-.25.82c-.08.42-.56.57-1.01.35s-.53-1.12-.85-1.23c-.32-.12-.59 1.6-.66 1.92s-.89.64-.89.64l.72.38.06.52s.56 0 1.38.29-.98.63-.98.63l-.6.52-.27 2.37s-.99.77-1.69 1.28c-.69.51-.65-.05-1.33-.43-.67-.38-1.7 1.51-2.38 2.45s-.75 1.3-.75 1.3l.96.35s-.06.18.09 2.02.83.15 2.03 1.09.1 3.1-1.65 4.61-1.34 2.29-1.83 2.58-.88-.11-1.28-.38c-.4-.26-.69.46-.57.8s.6 1.4.6 1.4 1.03.64 1.56-.17c.53-.8.87-.31.87-.31l.27-.5s-.26-.35-.26-.86c0-.52.4-.35.75-.04s1.52.3 1.52.3-.15.78-.41 1.05-.62-.42-.96-.35c-.33.07.42 1.34.45 1.48.04.14.9.44.91 1.05s-.46.48-.39.91c.06.43.17 2.17.08 3.38s-.82 3.5-.98 3.72-1.24.89-1.7 1.51.16 2.26.16 2.26-.9.78-1.34 2.34-.33 3.21-.33 3.21-.68 1.03-1.09 1.46c-.41.44-.5 1.04-.58 1.55s-1.05.95-1.05.95-.02.28-.1.73c.05.06.09.13.14.19.2.26.4.53.63.99.38.79.97 1.47 1.54 2.13.3.34.57.67.83 1 .06.08.07.18.02.26-.25.49-.49.82-.69 1.09-.27.37-.45.61-.51 1.05-.05.32-.2.72-.36 1.14-.29.75-.61 1.6-.41 2.19.1.28.21.5.31.69.27.51.5.96.13 1.89-.16.41-.3.8-.44 1.18-.24.67-.44 1.25-.73 1.76-.29.53-.4.98-.5 1.4-.04.17-.08.34-.13.5-.02.05-.05.1-.1.13-.65.45-1.11.84-1.51 1.19-.2.18-.4.34-.59.5-.38.3-.92.28-1.4.25-.32-.02-.68-.03-.79.08-.15.15-.13.35-.08.69.04.24.08.51.03.79-.07.39-.31.55-.49.68s-.28.2-.28.47c0 .32.11.5.22.7.12.22.26.47.23.85-.02.25-.09.45-.16.62-.11.3-.19.51 0 .92.34.7.9 2.01.93 3.07.14.15.27.29.38.39.27.25.65.54.85.69.51-.42 1.98-1.65 2.13-1.75.09-.06.22-.09.43-.13.36-.07.9-.19 1.47-.55.37-.23.74-.5 1.06-.74.47-.34.84-.61 1.1-.7.39-.13 1.7-.53 1.7-.53.02 0 .05-.01.08-.01.08 0 2.03.02 3.03.22.93.19 1.38 1.13 1.59 1.59.04.09.07.16.1.2.09.14.28.51.5.95s.48.94.63 1.2c.29.5 1.31 1.53 1.96 1.8.15.06.2.05.22.04.07-.03.14-.25.19-.43.06-.19.12-.4.23-.59s.14-.36.17-.53c.06-.3.13-.65.59-.89.59-.31 1.08.13 1.56.55.14.13.29.26.45.38.05.03.09.06.13.08.13-.42.23-.73.29-.84.29-.6 1.32-.15 1.32-.15l1.79-1.43s-.19-.83-.11-1.88c.08-1.06.98-1.43.46-1.96-.52-.54.52-1.09.66-1.39.15-.3-.28-8.01-.39-8.27s-.94-.76-1.33-1.41-.03-2.19-.03-2.19-.22-.39-.49-.97.83-.31.83-.31-.35-.34-.46-1.41 1.97-2.97 1.97-2.97-.38.09-.9-.44c-.52-.54.85-.56 1.35-1.4s.76-.13 1.05.95c.45-1.03 2.21-.27 2.21-.27s.62.11.97-.49c.36-.6.22 1.2.22 1.2s.56.92 1.56.93.03-.37-.28-1.27 0-.87-.52-1.41-1-.82-.62-1.73.66.42.95.63.88-.12.57-.96c-.31-.83-.57-.73-.22-1.2s-.16-.32-.61-.98.44-.09.98-.55c.53-.46.38-.1.76-.19.38-.1.12-.74-.06-.88s-.7-.61-.3-1.02.02-1.12.02-1.12 1.16.34 1.3.1-.27-.58-.79-1.18-.43-.97.15-1.24.63.73.63.73l.7-.2s-.44-.78-.22-1.2.98.32.98.32-.26-.71-.05-1.06.58.54.63.73.81.06 1.07-.17-.16-.39-.87-.94c-.5-.39.3-.59.81-.68-.17 0-.39-.02-.63-.12-.55-.23 1.09-1.19 1.09-1.19l-.03-.48s-.62.77-1.14.23 1.57-.95 1.57-.95l.05-.62s-.58.27-.96-.51c-.31-.63.59-.39.94-.28-.09-.06-.21-.22-.25-.61-.07-.69 1.18.09 1.18.09l.07-.99s-.39.16-.88-.72z"/><path d="m197.03 113.67c.22 0 .37-.05.37-.05s-.16.02-.37.05z"/><path d="m198.06 109.79s-.05-.02-.14-.05c.07.05.14.05.14.05z"/><path d="m136.81 220.82c.52.53.72.68.89.74s.9-.53.9-.53.18-.48.74-.51-.13-1.07-.13-1.07l-.91.11s.2.38-.36.36c-.56-.01-1.02.2-1.02.2s-.52.3-.12.7z"/><path d="m132.3 218.62c-.21.25.75-.81.75-.81l-.1-.87s1.02-.16 1.26.13-.09 1.94-.09 1.94l-1.14.57s-.52.02-.73.29-1.06 1.21-1.06 1.21l-1.23.14.12 1.03s-.61.59-.77.93-.51.78-.51.78l-.87.1-.76-.35-.42-1.15-1.9-.46-.11-.93s1.2-.4 1.53-.6c.34-.2.57-.95 1.08-1.09s1.16-.06 1.16-.06.47-.46.96-.55c.49-.1 1.12-.49 1.12-.49l.33-.6 1.5-.22s.45.39-.12 1.06z"/><path d="m120.9 227.1c.96-.27 1.4.64 1.4.64s-.18.14.07.59.81 1.43.76 1.68-.93.11-.93.11l-.2.87-.6.39-.77-.43s-.03-.96-.19-1.62-1.44-1.68.46-2.22z"/><path d="m113.76 236.28.77.79.97.09s.34-.52.58-.87 1.27-.43 1.27-.43l.36-.36-.56-1.02-1.03.12s-.14.54-.47.58c-.34.04-1.34 0-1.34 0l-.63.47.07.63z"/><path d="m111.93 240.87c.38-.3.66-.52.66-.52l.61.77-.08 1.05-.39.29-1.03-.4s-.44-.67.22-1.19z"/><path d="m103.93 242.09c.79.59 1.4-1.09 2.11-1.49s-.23-.94-.8-.63-2.2 1.46-1.32 2.12z"/><path d="m83.73 252.15c.18-.39.49-.94 1-1.08s1.03.56 1.03.56.29.45.11.91c-.19.46-.56 1.07-.56 1.07l-.5-.14s.1-.53-.2-.7-1.07-.2-.87-.62z"/><path d="m100.33 256.91c-.79.17-1.47-.19-1.53-1.1-.07-.91.91-1.83.91-1.83s.85-.58.62-1.24-.3-1.49-.02-1.88c.27-.39 1.18-.22 1.43-.47s.84-.68 1.12-.72 1.21.03 1.46-.17c.26-.21.09-.64-.67-.91-.75-.27-.87-.9-.72-1.68s.99-.76 1.71-.48c.71.28 1 .97 1.44.99.44.03.56-.71.92-1.15s.44-.25.82-.38c.39-.13 1.09-.97 1.18-1.26s.26-.84.72-.73c.45.11 1.17 1.47 1.04 2-.14.54-.99.8-1.16 1.02s.04 1-.49 1.3-1.44.05-1.84.22-.16.83-.82 1.02c-.66.2-.6 0-1.12.33-.52.34-1.08 1.41-1.65 1.68s-.71-.6-1-.32.17.38.37.8c.21.42-.06.49-.34.84s-1.93 1.73-1.6 2.07c.21.22.56-.13.84.02.29.15.46.58.46.58s-.93 1.21-2.07 1.46z"/></g></svg>