<svg viewBox="0 0 56.2 56.2" xmlns="http://www.w3.org/2000/svg"><path d="m56.2 10.25v35.79c-.01 5.62-4.62 10.17-10.25 10.16h-35.79c-5.62-.01-10.17-4.63-10.16-10.25v-35.79c.01-5.62 4.63-10.17 10.25-10.16h35.79c5.62.01 10.17 4.62 10.16 10.25z" fill="#39ae41"/><path d="m48.47 25.63c0-9.16-9.18-16.61-20.46-16.61s-20.46 7.45-20.46 16.61c0 8.2 7.28 15.08 17.11 16.38 2.4.51 2.12 1.39 1.58 4.62-.09.51-.41 2.02 1.77 1.1s11.78-6.94 16.08-11.88c2.96-3.26 4.38-6.56 4.38-10.22z" fill="#fefefe"/><g fill="#39ae41"><path d="m33.72 21.21h-1.43c-.23 0-.4.18-.4.4v5.29l-4.09-5.52c-.06-.11-.2-.18-.33-.18h-1.42c-.23 0-.4.18-.4.4v8.92c0 .23.18.4.4.4h1.43c.23 0 .4-.18.4-.4v-5.29l4.09 5.52c.06.09.19.16.33.16h1.43c.23 0 .4-.18.4-.4v-8.92c0-.21-.19-.4-.41-.39z"/><path d="m23.85 21.2h-1.43c-.23 0-.4.18-.4.4v8.92c0 .23.18.4.4.4h1.43c.23 0 .4-.18.4-.4v-8.92c0-.21-.18-.4-.4-.4z"/><path d="m20.4 28.68h-3.9v-7.08c0-.23-.18-.4-.4-.4h-1.43c-.23 0-.4.18-.4.4v8.92c0 .11.04.2.11.28.08.06.16.11.28.11h5.73c.23 0 .4-.18.4-.4v-1.43c0-.21-.18-.4-.39-.4z"/><path d="m41.66 23.43c.23 0 .4-.18.4-.4v-1.43c-.01-.21-.19-.4-.4-.4h-5.73c-.21 0-.4.18-.4.4v8.92c0 .21.18.4.4.4h5.73c.23 0 .4-.18.4-.4v-1.43c0-.23-.18-.4-.4-.4h-3.9v-1.51h3.9c.23 0 .4-.18.4-.4v-1.44c0-.23-.18-.4-.4-.4h-3.9v-1.51z"/></g></svg>