<?xml version="1.0" encoding="UTF-8"?>
<svg id="Layer_2" data-name="Layer 2" xmlns="http://www.w3.org/2000/svg" viewBox="0 0 313 313">
  <defs>
    <style>
      .cls-1 {
        fill: #fff;
      }

      .cls-2 {
        fill: #fe375d;
      }
    </style>
  </defs>
  <g id="_レイヤー_1" data-name="レイヤー 1">
    <g>
      <circle class="cls-2" cx="156.5" cy="156.5" r="156.5"/>
      <g>
        <g>
          <g>
            <path class="cls-1" d="m103.63,129.68l-5.36,37.55h14.51l-1.26,10.41h-26.5l6.63-47.96h11.99Z"/>
            <path class="cls-1" d="m132.35,144.83l-4.73,32.81h-11.04l4.73-32.81s11.04,0,11.04,0Z"/>
            <path class="cls-1" d="m138.66,144.83h11.04l-.32,4.42c1.89-1.89,3.47-3.16,5.05-3.79s3.47-.95,5.68-.95,4.1.32,5.68,1.26c1.58.63,2.52,1.89,3.47,3.16.63,1.26,1.26,2.21,1.26,3.79,0,1.26,0,2.84-.32,4.73l-2.84,20.82h-11.04l2.21-16.41c.32-2.21.32-3.47.32-4.73,0-.95-.32-1.89-.95-2.52-.32-.63-.95-.95-1.58-.95-.63,0-1.26-.32-1.89-.32-1.89,0-3.47.63-4.73,1.89-1.26,1.26-1.89,2.84-2.21,5.05l-2.52,17.35h-11.04l4.73-32.81Z"/>
            <path class="cls-1" d="m192.3,124.63l-4.42,31.87,13.25-11.67h15.15l-17.98,15.15,14.2,17.67h-15.46l-10.41-13.25-1.89,13.25h-11.04l7.57-53.01h11.04Z"/>
            <path class="cls-1" d="m238.68,153.34c-1.89-.95-3.79-1.58-5.68-1.58-.95,0-1.89.32-2.52.63s-.95.95-1.26,1.58v.95c0,.32.32.32.63.63.32.32.95.32,1.58.63.63.32,1.58.32,2.52.63,2.84.63,5.05,1.89,6.31,3.47,1.26,1.58,1.89,3.79,1.26,6.31-.32,1.89-.95,3.79-1.89,5.05-.95,1.58-2.21,2.84-3.47,3.79-1.58.95-3.16,1.89-5.05,2.52s-4.1.95-6.31.95c-4.42,0-8.2-1.26-11.99-3.79l5.05-8.2c2.84,2.21,5.68,3.47,8.52,3.47.95,0,1.89-.32,2.52-.63.63-.32,1.26-.95,1.26-1.89v-.95c0-.32-.32-.63-.63-.63-.32-.32-.63-.32-1.26-.63-.63-.32-1.26-.32-2.52-.63-3.47-.63-5.68-1.89-6.63-3.16-1.26-1.58-1.58-3.47-1.26-5.99.32-1.89.95-3.47,1.58-5.05.95-1.58,1.89-2.84,3.47-3.79,1.26-.95,2.84-1.89,4.73-2.21,1.89-.63,3.79-.95,5.99-.95,3.47,0,6.63.63,9.78,2.21l-4.73,7.26Z"/>
          </g>
          <path class="cls-1" d="m158.85,39.12c-52.06,0-96.55,34.08-111.7,81.09h10.41c14.83-41.65,54.59-71.31,101.28-71.31,59.32,0,107.59,48.28,107.59,107.59s-48.28,107.59-107.59,107.59c-48.28,0-89.29-32.18-102.86-76.04h-10.41c13.88,49.54,59.32,85.82,113.27,85.82,64.68,0,117.37-52.69,117.37-117.38.32-64.68-52.38-117.37-117.37-117.37Z"/>
          <path class="cls-1" d="m70.5,148.93h-18.93c.32-6.31,1.58-12.62,3.16-18.93h-10.41c-1.26,5.99-2.21,12.31-2.84,18.93h-17.35l-1.58,9.78h19.25c0,6.63.95,13.25,1.89,19.56h10.1c-1.26-6.31-1.89-12.94-2.21-19.56h17.67l1.26-9.78Z"/>
        </g>
        <circle class="cls-1" cx="128.56" cy="133.15" r="6.63"/>
      </g>
    </g>
  </g>
</svg>