<svg viewBox="0 0 71.46 66.13" xmlns="http://www.w3.org/2000/svg"><path d="m22.84 25.51-1.51 10.58h4.09l-.36 2.93h-7.47l1.87-13.51z"/><path d="m30.93 29.78-1.33 9.24h-3.11l1.33-9.24z"/><path d="m32.71 29.78h3.11l-.09 1.24c.53-.53.98-.89 1.42-1.07s.98-.27 1.6-.27 1.16.09 1.6.36c.44.18.71.53.98.89.18.36.36.62.36 1.07 0 .36 0 .8-.09 1.33l-.8 5.87h-3.11l.62-4.62c.09-.62.09-.98.09-1.33 0-.27-.09-.53-.27-.71-.09-.18-.27-.27-.44-.27-.18 0-.36-.09-.53-.09-.53 0-.98.18-1.33.53-.36.36-.53.8-.62 1.42l-.71 4.89h-3.11l1.33-9.24z"/><path d="m47.82 24.09-1.24 8.98 3.73-3.29h4.27l-5.07 4.27 4 4.98h-4.36l-2.93-3.73-.53 3.73h-3.11l2.13-14.93h3.11z"/><path d="m60.89 32.18c-.53-.27-1.07-.44-1.6-.44-.27 0-.53.09-.71.18s-.27.27-.36.44v.27c0 .09.09.09.18.18s.27.09.44.18c.18.09.44.09.71.18.8.18 1.42.53 1.78.98s.53 1.07.36 1.78c-.09.53-.27 1.07-.53 1.42-.27.44-.62.8-.98 1.07-.44.27-.89.53-1.42.71s-1.16.27-1.78.27c-1.24 0-2.31-.36-3.38-1.07l1.42-2.31c.8.62 1.6.98 2.4.98.27 0 .53-.09.71-.18s.36-.27.36-.53v-.27c0-.09-.09-.18-.18-.18-.09-.09-.18-.09-.36-.18s-.36-.09-.71-.18c-.98-.18-1.6-.53-1.87-.89-.36-.44-.44-.98-.36-1.69.09-.53.27-.98.44-1.42.27-.44.53-.8.98-1.07.36-.27.8-.53 1.33-.62.53-.18 1.07-.27 1.69-.27.98 0 1.87.18 2.76.62l-1.33 2.04z"/><path d="m38.4 0c-14.67 0-27.2 9.6-31.47 22.84h2.93c4.18-11.73 15.38-20.08 28.54-20.08 16.71 0 30.31 13.6 30.31 30.31s-13.6 30.31-30.31 30.31c-13.6 0-25.15-9.07-28.98-21.42h-2.93c3.91 13.95 16.71 24.18 31.91 24.18 18.22 0 33.07-14.84 33.07-33.07.08-18.23-14.76-33.07-33.07-33.07z"/><path d="m13.51 30.93h-5.33c.09-1.78.44-3.56.89-5.33h-2.93c-.36 1.69-.62 3.47-.8 5.33h-4.9l-.44 2.76h5.42c0 1.87.27 3.73.53 5.51h2.84c-.36-1.78-.53-3.64-.62-5.51h4.98z"/><circle cx="29.87" cy="26.49" r="1.87"/></svg>