<svg viewBox="0 0 279 279" xmlns="http://www.w3.org/2000/svg" xmlns:xlink="http://www.w3.org/1999/xlink"><clipPath id="a"><rect height="279" rx="38.69" width="279"/></clipPath><g clip-path="url(#a)" fill="none"><g fill="#bfbfbf"><path d="m141.26 13.58.37 2.79 1.78 2.99s3.72-1.25 4.3-1.4 2.49-5.25 2.49-5.25l-4.07-4.88-1.42.47-3.44 5.28z"/><path d="m129.95 20.76s.56 1.47.91 3.12c.36 1.65 4.93 3.03 4.93 3.03l2.91-3.22.17-2.28 2.89-.36-2.72-3.16-3 .54.38 3.89-2.59.24s-3.26-2.34-1.32-2.77 2.23.74 2.09.15c-.15-.58 2.85-5.03 2.85-5.03l-3.13-.23s-3.03 2.35-3.61 3.74-.74 2.33-.74 2.33z"/><path d="m89.39 140.2 2.37.17s.86-2.61 1.87-2.06 1.24 3.81 1.24 3.81l2.1 1.3s-1.42-4.01.31-4.27 5.26-.24 5.26-.24l.25-3.36s-2.93.93-4.44.72-2.62-.67-2.94-.22-.65 2.34-1.67.64-1.71-3.94-1.71-3.94l-2.21 1.55-.43 5.88z"/><path d="m104.87 135.82 2.98-2.93.72.63s-.82 3.37-1.05 3.83c-.22.46-1.05.69-1.05.69z"/><path d="m104.23 129.09s4.68-1.37 4.06-2.08-3.44.03-2.61-2.1 1.15-4.11 1.15-4.11-4.29 2.74-4.43 2.06.88-.32 1.55-2.94-.72-3.2-.72-3.2-3.26-1-3.29 1.95-2.17 2.22-1.74 2.92 2.54 1.71 1.81 2.61-1.48.65-1.24 1.24 1.46 3.54 1.75 3.37c.3-.17 1.13-3.64 1.4-3.42.27.21 2.3 3.7 2.3 3.7z"/><path d="m173.82 113.2c.21 1.34 4.23.81 5.05.37s6.88-3.07 7.26-3.47-.18-2.44-.18-2.44-2.61 1.45-4.67 2.23-2.04.56-3.65.95c-1.6.38-4.11.48-3.82 2.36z"/><path d="m125.38 122.14s2.6-.31 3.52.76 2.67.63 2.89.64c.21.02 2.66-1.09 1.42-1.76-1.24-.66-4.85-.14-5.64-1.13s-1.61-1.41-3.19-1.31-3.58-1.91-3.73-.85-1.99.82.35 2.05c2.34 1.22 2.28 1.52 4.39 1.59z"/><path d="m148.24 116.75c.88 1.55 1.19-.56 2.7.2 1.52.76 1.42 1.1 2.73-.23s3.36-.97 3.61-2.45.15-3.06-.79-2.92c-.94.15-1.59 4.1-3.17 4.2s-1.92-2.07-2.13-2.16-1.48.73-1.48.73-2.24 1.28-1.48 2.62z"/></g><path d="m184.23 121.36s2.8 3.35 4.33 4.71c1.52 1.35 3.32.24 3.6.27.28.02 5.31.39 5.31.39s-1.57 3.13-.98 4.22.5 2.33.5 2.33-1.53 1.41-1.25 2.67c.29 1.26 1.1 3.23 1.46 3.45.37.22 3.41 2.92 3.41 2.92l-.65 2.34s-2.79-.97-2.78.18 1.59 1.74 1.59 1.74l2.93 2.89-.78 1.47-4.65-.34-.71 3.19s-2.11-1.11-3.22-.24-5.28 4.38-5.28 4.38l-2.43 3.25s-4.93-1.7-4.36-.32.03 3.05-.4 4.64c-.44 1.59-2.03 5.09-2.03 5.09l.07 6.87-1.46.37s-5.47-5.93-6.69-7.55-2.18-4.07-4.83-5.6-6.13-.93-7.43-2.65-2.34-4.46-4.04-2.11-4.88 2.79-4.88 2.79-2.63 2-3.22 2.24-2.14 3.18-2.14 3.18-2.29-3.89-3.84-2.29-1.4 3.43-1.42 3.71-.6.43-.6.43-.14-3.25-1.28-2-4.68 2.71-3.21 4.72c1.47 2.02 1.73 2.42 1.58 3.17s-2.84 3.6-4.16 4.65-1.53 6.56-3.46 6.8-2.63-3.15-4.37-1.47c-1.75 1.68-2.18 6.23-2.1 6.52.07.29.64 3.58-.34 4.27s-1.75.82-1.75.82l2.39 5.13-1.58.74s-3.52-5.22-4.33-4.61-4.16 4.75-4.16 4.75-3.27-.91-3.55-1.02c-.28-.12-1.47-3.35-2.17-2.93-.7.43-2.24 1.93-2.24 1.93s-.15 1.99-.83 2.13-3.22-.24-3.22-.24l-1.68-1.75s-.19-2.59-.47-2.61-.57-1.28-.57-1.28l2.05-.61-.34 1.98s1.15 2.47 1.54 2.4 3.84-1.62 3.84-1.62-.26-2.88.38-3.88c.65-1 4.03-1.61 4.2-3.98.18-2.37-1.8-2.8-2.09-2.63-.3.17-3.62 2.59-3.62 2.59l-1.44-1.15-1.67.64-1.21-2.95 2.48-1.25s.43 3.27 1.23 2.67c.81-.61.77-2.71.42-3.12s.15-2.09-2.57-2.67-7.16 1.47-5.34-1.25c1.82-2.73 3.81-2.58 5.02-2.11 1.2.47.46-2.35.46-2.35l-3.65-2.18 2.85-1.12s.23 2.11 1.27 2.19 5.15-1.24 3.87-2-2.88-.98-2.88-.98.51-5.68-1.26-6.2c-1.77-.51-4.31-.32-4.56-1.19-.25-.88.27-3.72.27-3.72s2.04-2.11 1.03-2.67c-1.01-.55-9.08 4.1-9.08 4.1l-2.65 1.04-2.37-.18s1.01-2.12 1.59-2.17 7.4-2.12 9.3-3.22c1.89-1.1 5.08-5.54 7.42-6.22 2.34-.69 7.59-.78 7.02-3.39-.57-2.62-1-4.56.82-4.71s1.06 1.13 1.82-.15 1.32-6.29 1.32-6.29-2.01-1.2-1.83-1.09 1.93-2.91 2.37-2.45-.42 3.07 1 1.93c1.42-1.13 3.55-4.22 3.55-4.22s3.66.75 4.74-.89c1.07-1.64 1-3.26 1-3.26l2.72.68s2.27 4.08 3.93 6.2c1.65 2.12 1.15 3.14 3.53 2.84s4.96-2.97 4.96-2.97 2.68 1.15 3.55.93 1.96-2.05 1.96-2.05.51 3.47.91 3.17 3.55-.36 3.55-.36 1.38 1.91 2.89.83 2.41-5.5 2.41-5.5 1.87.52 1.88-2.24 1.04-5.03-.35-5.54c-1.39-.5-3.54-3.71-3.54-3.71s2.3-.12 2.28.17c-.02.28 2.83 3.07 4.6 2.25 1.78-.82 2.72-3.23 2.72-3.23s1.75-.45 2.84-1.04 1.06-4.02 2.75-3.61-.93.98 3.21 1.76 6.78-.17 6.78-.17l2.4-1.55 1.45 1.17 1.25 2.32 2.95-1.25.45 2.89z" fill="#727272"/><path d="m30.43 131.09c2.25.72 4.96-.92 4.96-.92l1.93.99s-4.85 1.36-3.68 3.17c1.17 1.8 2.06 3.3 2.06 3.3s-1.5.89-.89 2.37 4.07 4.88 4.19 5.32c.11.44 3.79 2.85 5.14 3.96 1.35 1.1 1.35 3.03 2.86 3.82 1.52.79 2.87-2.11 2.87-2.11l1.7.27s.59 1.76 2.19 1.31c1.61-.45 4.92-2.64 5.15-3.91.24-1.27 2.76-2.51 2.76-2.51l4.19 1.31s3.62 7.2 3.61 7.31c0 .11-3.47 6.31-3.47 6.31s-1.6-1.57-2.8-.8-1.64 2.88-1.64 2.88-1.83 1.58-3.52 1.17-2.36-2.89-3.45-1.68-1.71 1.88-.44 3.97c1.28 2.1 3.57 3.98 6.54 4.34 2.98.36 9.25.68 9.25.68l.89 1.5s1.25 2.38-.24 3.27-.2 2.7-.2 2.7l2.27-1.69 5.41 2.26-.13 1.71-2.04.56-1.57-.12s-.87-1.78-1.5.89-1.89 4.29-.55 5.54c1.34 1.24 5.87 1.86 5.87 1.86l2.14-1.84.56 2.04s-3.17.34-4.26 1.55-2.75 2.37-2.09 3.14c.66.76 2.37.89 2.37.89l-.38 1.26s-5.71-2.14-6.07.84-.76 4.52-.76 4.52-5.37-2.83-5.41-.4 1.53 2.54 1.53 2.54l-.69 1.67-3.41-.25s-2.29-.03-1.99 1.71 2.3 1.74 2.3 1.74l-1.26 1.62s-2.82-2.5-2.56-.19 1.83 2.28 1.83 2.28l-.28 1.84-2.13-.16-1.38 5.19s-1.82 1.44-2.9 4.36c-1.07 2.92-2.61 9.68-3.27 12.06s-3.29 5.05-3.58 7.03-.58 2.1-.1 3.28-.06 2.71-.06 2.71-1.84-.28-1.84 1.72-.29 1.98.46 3.47.09 2.72.09 2.72-1.82-.56-2.24 1.27.87 3.78.87 3.78l-1.08 1.06-1.46-1.54-.76 2.52s-2.73.23-1.82 1.44 3.07 2.94 2.34 3.18c-.73.23-2.47.53-2.47.53l-5.33-3.4-.62-1.33s-1.54-2.4-4.96-.65-4.83 3.36-3.04 4.35 4.18 1.45 4.18 1.45l-1.33 2.48-.86 1.94s-.51-.9-2.79.94c-2.28 1.83-2.48 3.68-4.25 4.84s-3.39 1.75-6.13 2.12l-2.74.37-3.7 3.59s-.54-4.33.39-5.26 4.51-2.96 4.51-2.96-1.24-2.52-.14-3.87 1.58-4.03 1.58-4.03l-.65-.91s1.51.83 1.39-1.33c-.13-2.16-2.79-6.79-2.79-6.79l-.46-3.47s1.63 1.12 2.79-.94c1.15-2.06 1.64-.88 1.92-2.72s-.79-6.78-3.62-7.13c-2.84-.35-5.87.14-5.97 3.42s1.33 3.25 1.33 3.25 4.03-.27 3.6 1.55c-.42 1.83-1.52 3.18-2.9 2.5-1.38-.67-1.79-2.85-3.07-2.94s-1.91.72-2.59 4.1-2.37 8.84-.77 10.39 4.86 1.93 4.86 1.93l.38 2.6s-1.52 3.18-1.3 4.05-.84 1.65-.84 1.65-.6-1.62-1.74-1.56c-1.15.06.11.15-2.7-2.34-2.81-2.5-5.01-1.8-5.73-1.71s-4.19-1.31-4.19-1.31-1.93 1-2.49.82-2.07-3.01-1.89-3.43c.17-.42-1.67-2.56-1.67-2.56l-1.99-4.01 2.67-1.23s-2.44.11.62 1.33c3.06 1.23 6.93-.92 7.94-4.85s3.67-5.16.99-7.65-1.77-3.13-2.78-4.93c-1.01-1.79-3.35-3.11-3.32-3.53.03-.43 1.08-3.07 1.08-3.07s1.47 1.4 2.27.31-1.2-3.09-1.2-3.09l1.35-6.62s-1.45-1.68-1.85-2c-.41-.32-3.43-5.83-3.26-6.25s2.09-3.14 2.5-2.82 2.38.75 2.76 1.35 2.35 3.03 1.03 3.51c-1.32.47-4.71-.2-2.1 1.28s4.25.6 4.25.6-.39 1.4.74 1.63 4.88-4.07 5.05-4.49 3.95-3.14 5.52-5.03 3.56-7.6 3.56-7.6l.05-4.57 2.42-1.82s4.16-3.98 2.11-5.28-5.19.62-5.19.62-2.28-.17-2.45.25-1.22-.95-1.22-.95l4.39-3.25 3.79-1.01-.43-3.89s3.56-1.74 1.54-3.46-5.77-3.29-6.16-3.74c-.4-.46-4.11-6.31-4.11-6.31s4.09-4.99 1.32-6.2-3.77.72-4.92-1.22c-1.14-1.94-.5-2.9-2.56-2.19-2.05.71-8.67 3.08-5.76 6.3s6.93 4.95 5.39 6.41-7.86-.15-6.07 2.84c1.78 2.99 3.34 3.25 5.7 2.28 2.36-.97 5.04 1.52 5.27 2.25s-1.2 6.63-1.31 8.06c-.1 1.42-1.72 2.02-3.25 1.33-1.52-.68-2.42-2.04-2.99-.22-.56 1.82-.2 2.7-1.08 3.07-.89.36-2.09-2.73-2.09-2.73l-.14-2.01s3.77 1.28 3.6-2.31c-.16-3.59-3.5-6.84-5.03-5.52s-2.4 1.54-2.4 1.54-3.86-2-4.55-.34c-.69 1.67-2.61 2.38-2.61 2.38s-.99 1.79-2.68 3.38-5.16 4.05-5.16 4.05l.11-1.42s5.14-3.77 4.24-5.12-3.62-3.27-3.62-3.27 1.24-1.34-.78-3.06-4.34-5.18-4.45-5.62.35-4.69.35-4.69 3.41-3.61 3.76-4.44 2.5-.96 2.55.33 5.63 5.14 5.63 5.14l-1.08 4.93s-2.2-1.16-2.21.84c0 2-.54 5.4 1.36 4.82s2.73-4.09 3.84-3.58 4.21 3.03 4.47 1.47c.26-1.55-3.34-7.11-3.34-7.11s1.77-2.73-.03-3.44c-1.81-.71-3.06-1.23-3.06-1.23l-1.97-2.43-2.41-.32s1.81-1.3.49-2.82c-1.32-1.53-3.85-.14-3.85-.14l-1.99-.15s2.93-.93 2.1-3.28-2.79-.92-2.79-.92l-1.68-.55s1.85-1.87 2.23-3.13.58-3.96.58-3.96 1.67-1.31 2.09-1.13c.42.17.56 2.04 2.73 1.77s4.83-1.45 5.34-.58-1.2 4.61-.79 4.92c.41.32 3.14.09 3.5-.89.36-.97.86-5.8.32-6.27s-5.01-1.94-5.01-1.94 1.76-2.52 2.46-2.36 5.12-1.52 5.12-1.52l1.28 1.99.2 3.13 3.08.94s3.07-4.78 4.49-4.68c2.17-.27 2.31-2.26 2.31-2.26l-4.06-1.16.96-1.36 3.98-1.57 1.64.98s-1.78.87-.13 1.71 1.47 1.4 3 1.94 5.17-.33 5.17-.33 1.27-1.77 1.08-3.07-1.69-2.27-2.15-1.87-2.34 2.69-2.34 2.69l-.61-1.47 5.45-4.03 1.23-1.2 1.73-5.98s2.18-2.46 3.13-1.68 2.49 3.14 3.7 2.18 2.62-2.57 3.32-2.38 4.83 1.25 6.42 1.76z" fill="#bfbfbf"/><path d="m4.9 200.29s2.52 2.62 1.38 4.54-1.75 2.45-1.94 3c-.18.56.03 3.44-.29 3.98-.33.55-4.75 4.23-4.75 4.23l-1.71-.13s-.41-2.18.16-2.13c.57.04 3.8.42 4.01-1.28s-1.44-4.47-1.44-4.47-.82 2.3-2.6 2.74-2.57 1.38-2.57 1.38-2.55 1.67-2.87 2.08-1.43 1.9-3.18 2.34-4.08.99-4.16 2.12c-.08 1.14.66 4.63-.93 4.8s-3.15-5.81-3.15-5.81 3.09-1.2 4.7-1.66c1.61-.45.21-2.85-.94-2.79s-2.48-3.19-2.48-3.19 3.01-3.93 3.47-4.4c.46-.46-.06-3.08-.06-3.08s1 .07 1.41.25c.42.17 3.92-2.71 4.31-2.26.4.46 2.98 2.79 2.98 2.79s-1.34 9.07-.62 8.47 2.05-3.07 2.08-3.5-2.94-2.79.31-4.27c3.26-1.48 6.49 1.19 7.7.28s1.16-4.06 1.16-4.06z" fill="#bfbfbf"/><path d="m183.2 97.23c-.21-.96-1-4.58-1.57-6.81-.69-2.72-.59-4.2-.32-7 .21-2.16 1.77-3.17 3.15-4.05.67-.43 1.29-.83 1.8-1.35 1.24-1.27 1.87-4.74 2.01-5.97.04-.39.38-.69.78-.68 1.28.03 2.7-.2 2.92-.48.13-.25.39-.7.72-1.25.81-1.38 2.16-3.69 2.55-4.94.43-1.39-.52-3.3-3.19-6.39-.17-.2-.23-.48-.15-.73.96-3.02-2.13-6.4-2.16-6.43-.06-.06-.11-.14-.14-.22l-.08-.19c-2.14.5-3.72 2.6-7.52 3.85-4.25 1.4-6.69-.49-9.12-.53s-2.53 1.39-4.55 1.52c-2.01.14-16.47-1.64-16.47-1.64s-3.41 3.61-4.87 3.93-2.67-2.63-2.67-2.63-2.5-1.04-3.09-2.66c-.6-1.62 4.81-3.22 4.81-3.22l-1.29-1.95s-2.18.41-4.68 1.37-1.9-1.43-4.41-2.33-4.53 3.24-4.98 3.49-3.2 2.63-6.34 2.54-2.68-.48-5.83 1.43c-3.14 1.91-1.73.16-2.16.13s-.71 1.81-.71 1.81 3.08 2.8 1.83 4.28-6.52 4.95-6.94 4.92c-.43-.03-2 0-3.1 1.34-1.1 1.35-5.26 3.47-5.7 3.58s-1.52 1.18-2.07 2.85c-.55 1.68-7.81 7-8.26 7.26s-1.73 2.16-3.74 4.16-3.25 1.33-6.3 1.97c-3.05.63-4.53 5.24-6.6 6.09-2.06.85-2.42-.18-5.11-.52s-3.81 3.15-5.09 5.06c-1.29 1.91-1.72 2.02-4.51 2.96-.3 2.12-4.55 5.39-6.34 6.4s-4.01.13-5.4-.54c-1.38-.67-3.77-3.14-3.77-3.14l-2.31.26-4.17-3.6-2.14 1.84-.12 1.57 2.26.45s2.27.31 2.5 1.04-1.74 2.3-4.17 2.27c-2.43-.04-2.45-1.75-2.85-2.07-.41-.32-1.19.2-1.19.2s.91 1.64 1.23 3.09-1.18 2.49-1.67 3.31 3.4 2.4 3.83 4.29-3.29 1.9-3.29 1.9l-.69 9.39s2.27.31 3.69.42.65-1.1 1.75-2.45 3.18-.48 3.18-.48 2.65 2.91 3.77 3.14c1.13.23 2.24 2.6 2.24 2.6s3.98.29 5.3-.04c1.31-.33 3.42-3.75 3.63-4.6.21-.84.78-2.8 2.5-2.82s-.67 3.24-2.06 4.71c-1.4 1.47-.14 1.85-.14 1.85l1.88 1.71h1.86s0-4.01 1.07-4.79 1.65 2.84 1.65 2.84.93.93 1.5.97 1.15-2.06 2.89-2.36 1.26 4.24 1.26 4.24l1.24.66s.51-4.97 1.56-5.61.55 4.19.52 4.62.71.05 3.04-.49-.25 3.41-.25 3.41 2.25-1.41 3.41.25 3.45 1.69 6.09 2.74 4.23 4.75 4.23 4.75-.96-2.5-2.45-5.62c-1.49-3.11 2.44-2.11 4.87-4.22s.45-3.97.64-8.53 1.22-4.92 1.94-6.87 3.38-5.04 8.53-5.09c1.79-2.87 4.81-1.22 5.21 1.1s-.8 1.09-.24 3.27c.55 2.19 4.66 4.64 6.62 5.21s1.29 1.95 2.84 4.21 1.96.57 4.6-.38.56-1.82-1.15-1.8c-1.72.02-2.67-.63-3.32-1.53-.65-.91-.7-2.2-.29-3.88.41-1.69 2.38-1.25 5.15-1.91 2.77-.65 5.24.67 8.51-.95s.81-1.23 4.23-1.12 2.91-.64 5.49-.74 5.2 3.24 5.34 2.83c.14-.42.87-1.65 1.1-2.92.24-1.27-1.38-2.68-.25-4.31 1.12-1.63 2.42.18 5.5 1.12s1.97-1.43 5.42-1.75c3.46-.32 4.53 6.48 6.77 5.22 2.24-1.27 6.2-.69 6.2-.69s1.64-2.88 1.25-3.34c-.4-.46-.83-.35-2.91.64s-.03-3.44 2.36-4.83c2.39-1.4 4.95 2.65 4.95 2.65s3.06-.78 3.04-2.49c-.02-1.72-.13-2.16 2.77-2.66s3.52-3.17 3.52-3.17-1.69-.32-3.68-1.8c-1.8-1.34.47-.51 3.03-.18z" fill="#bfbfbf"/><path d="m298.28 120.04c-2.16-1.69-4.5-3.57-8.36-5.58-3.86-2-2.04-3.39-2.99-3.46s-1.62 1.22-4.22-.31.91-3.94.5-6.26c-.4-2.32 5.29-7.05 6.58-9.05s1.86-7.11 1.86-7.11.54-.03 1.22-.13c-1.16-2.65-2.95-3.74-3.25-3.91-1.21-.67-3.03-.82-3.05-.82l-6.39-1.24c-.38-.07-.64-.42-.61-.8l.2-2.7c-.32-.47-1.28-1.83-2.17-3.05-.21-.28-.19-.67.04-.94.26-.3 1.57-1.79 2.56-2.25.11-.26.07-1.09-.09-1.86l-1.67-1.21c-.1-.07-.18-.17-.23-.27l-.25-.49c-.18-.35-.06-.78.28-.99l.77-.48.41-5.61c-.38-.13-.99-.29-1.74-.3-.46 0-.85-.19-1.17-.52-.9-.93-1.01-2.96-1.01-3.79l-2.76-3.38c-.64-.22-1.37-.33-1.56-.21-.2.26-.43 1.79-.45 3.25 0 .18-.07.35-.19.49 0 0-1.88 2.16-2.61 2.97-.5.56-1.56.85-3.23 1.26-.79.19-1.97.49-2.22.7-.85.73-8.37 7.49-9.35 8.51-1.42 1.47-4.92 1.28-7.49.36-3.23-1.15-7.19-3.82-7.71-7.53-.42-2.97-.54-5.49-.57-6.33l-1.5-1.63c-1.49 1.41-2.24-.53-2.24-.53l.41 2.18s3.01 1.8-.14 1.85-1.39 3.33-2.54 3.39.07-2.86.07-2.86-.03-1.58-.45-1.61c-.43-.03-.94 1.08-2.31.26s.83-1.51.83-1.51l-1.34-1.24-4.02 4.14s-.65-.91-.85-2.07 3.82-3.29 3.82-3.29.81-1.23.59-4.1c-.22-2.88 1.94-1.14 1.94-1.14s2.27.31 2.47-.53c.21-.84-3.68-4.42-3.68-4.42s-5.92 2.71-6.69 3.37c-.76.66-1.89.43-3.04.49s-2.65 2.95-2.65 2.95-1.83 1.58-3.1 1.34-1.4-4.25-4.57-3.91-10.26-.47-10.26-.47-4.18 2.32-6.91 2.88c.86 1.05 2.99 4.04 2.27 7.12 2.88 3.41 3.82 5.6 3.22 7.52-.44 1.42-1.8 3.73-2.69 5.26-.31.52-.56.95-.68 1.2-.54 1.03-2.39 1.26-3.62 1.29-.22 1.45-.86 4.68-2.34 6.19-.63.64-1.36 1.11-2.07 1.57-1.44.92-2.32 1.56-2.46 2.92-.26 2.7-.35 4 .28 6.49.57 2.25 1.36 5.88 1.58 6.86l.57.49c2.02.11 3.11.05 3.11.05l4.33-1.78s2 1.29 2.99.79 6.08.26 9.43 1.46c3.34 1.2 3.6 2.94 4.15 3.17s1.74 2.23 4.37 2.8c2.63.58-.09 3.81-.88 4.13s-8.18 7.41-8.29 8.92c-.11 1.52-3.38 1.85-3.38 1.85l-2.28 2.5 2.02 3.58-.35 4.74 1.59-.84s2.9-.55 3.5-.89 1.81-1.2 2.04-1.76c.23-.55 2.49-.2 2.49-.2l1.82-1.39-2.62-3.24.35-4.74 7.21-7.29.25-3.41 5.38-.56 2.66-2.47s3.61-2.4 5.87-2.05c2.26.36 5.71 2.71 5.71 2.71s1.06 3.7-.83 6.04-6.08 4.89-6.08 4.89-.02 2.86-2.2 4.03-2.06 2.14-4.21 2.74c-2.14.6-4.31 1.59-4.31 1.59l-.98 2.98s2.01 3.77 3.14 6.53c1.13 2.75-2.44 2.11-2.44 2.11s.04 2.1 1.06 3.7c1.03 1.6-1.19 3.15-1.19 3.15s-1.24 1.24-1.36 2.95c-.13 1.71-2.63 4.57-2.63 4.57s2.58-1.34 4.68-1.37c2.1-.04 1.75 4.71 1.75 4.71h5.15s4.82 1.88 5.21 4.39-2.74.94-2.74.94-.29 1.31-.22 3.03c.06 1.72 2.29 5.13 3.25 5.01s1.95 2.05 3.18 3.48 5.62 1.37 7.83 2.48c0 0 .13 3.44.96 2.55s6.02-1.46 6.02-1.46l-1.07-1.03s-.61-2.14.21-2.85c.81-.7 3.02.41 3.88-.86s3.26-2.81 3.26-2.81l-.55-2.9 2.66.2-2.38-3.99 3.32-1.09s1.06-6.6 3.2-7.2 3.18-2.44 3.18-2.44-1.46-2.78.25-3.41c1.72-.64 2.33 2.65 2.33 2.65s1.77-3.3 1.62-3.89c-.15-.58-.96-2.55-2.9-4.6-1.95-2.05 1.96-3.29 2.81-1.89s3.83 2.38 3.83 2.38l.67-1.29s.11-1.52-1.67-3.17c-1.79-1.66 2.34-3.26 5.49-2.07.17-2.28 3.76-1.82 4.25-3.31s3.44-.13 3.44-.13l1.94-.43-.61-4.62s2.74-.94 4.2-.07-.75 2.42-.75 2.42.88 1.02 1.8 1.47 4.47-1.2 4.47-1.2 1.22 1.62-.62 3.2c-1.83 1.58-2.73.75-1.63 1.41s4.43-.63 5.51-2.26c1.07-1.64-.96-5.03-.96-5.03s1.48-1.99-.68-3.67z" fill="#bfbfbf"/><path d="m394.68 90.35c-1.11-.46-.7-3.48-.7-3.48s1.6-1.03 2.56-1.15 2.59-1.53 2.59-1.53l-1.59-2.14c-.26-.05-.52-.1-.77-.14-4.07-.57-5.71-2-5.51-4.79.11-1.54 1.37-2.28 2.19-2.77.22-.13.54-.32.68-.45-.04-.03-.08-.07-.12-.1-.48-.39-1.29-1.04-1.95-2.78-1.01-2.67 2.02-4 4.23-4.98.74-.33 1.44-.63 1.85-.92.94-.66.91-1.85.77-3.33-.03-.35-.06-.66-.06-.93 0-.94-2.65-3.49-5.2-5.96-3.26-3.15-8.86-7.53-8.91-7.57-.09-.07-.35-.27-4.32-5.4-.13-.17-.19-.4-.15-.61l.55-2.85-5.37-6.53c-.07-.08-.12-.18-.15-.28l-.38-1.36c-.07-.26 0-.54.19-.73.77-.79 1.94-2.25 2.04-2.86.08-.5-.63-1.21-.97-1.46-.31-.23-.4-.65-.21-.99.18-.32 1.13-1.94 1.95-2.44.12-.16.19-1.06.13-1.84-.38-1.28-1.34-3.34-2.38-3.63-1.16-.32-2.75.3-3.51.6-.44.17-.64.25-.89.24-.88-.07-1.49-1.67-1.56-1.97-.18-.71.11-1.08.31-1.25.16-.31.3-1.51-.28-2.47-.83-1.37-.24-3.33.09-4.38.06-.2.11-.36.13-.45.07-.99 2.09-2.35 3.36-2.73.06-.02.11-.03.14-.05 0-.08-.01-.19-.02-.29-.04-.46-.1-1.16.16-2.12.66-2.45 4.55-3.71 6.99-3.63 1.81.05 3.84.25 4.55.33.21-.14.44-.34.5-.48s.11-.38.19-.68c.21-.86.53-2.16 1.21-3.17.69-1.03 1.69-1.06 2.49-1.08.55-.01 1.07-.03 1.57-.31.45-.25.47-.53.38-1.64-.06-.68-.13-1.52.07-2.46.54-2.6 3.22-3.46 5.55-3.4 1.23.03 2.6-2.15 2.98-2.92.09-.19.26-.33.46-.39s.42-.03.6.07c.08.05 2.05 1.22 2.87 3.08.21.47.54 1.01.93 1.57-.53-2.41-1.64-4.92-2.38-6.45-.9-1.85-.47-3-.09-4.03.18-.48.35-.94.39-1.49.05-.71-.19-1.15-.52-1.75-.37-.68-.84-1.52-.85-2.87-.02-1.64.87-2.25 1.52-2.7.52-.36.77-.55.86-1.08.11-.62.01-1.29-.09-1.93-.17-1.12-.36-2.39.66-3.41.83-.84 2.17-.77 3.58-.7 1.24.06 2.52.13 3.24-.44.59-.47 1.16-.96 1.77-1.48 1.22-1.05 2.59-2.23 4.53-3.58.1-.38.19-.77.29-1.17.31-1.35.67-2.88 1.67-4.69.81-1.46 1.42-3.18 2.12-5.16.41-1.16.84-2.36 1.35-3.65.87-2.19.45-3.01-.33-4.49-.33-.64-.71-1.37-1.05-2.32-.82-2.32.28-5.19 1.26-7.73.46-1.19.89-2.32 1.01-3.14.25-1.73.99-2.74 1.84-3.9.53-.72 1.12-1.53 1.75-2.7-.66-.86-1.4-1.71-2.17-2.6-1.8-2.08-3.66-4.24-4.91-6.83-.48-.98-.92-1.64-1.37-2.26-.02.1-.04.19-.06.29-.63 2.67-2.53 3.25-2.71 5.66-.18 2.42-.57 3.82-1.73 6.02s-.41 5.55-.41 5.55-4.51 2.96-4.92 4.64c-.41 1.69-1.25 3.34-5.66 5.02s-11.15 5.76-13.06 8.33c-1.91 2.58-3.42 7.61-4.03 10s-7.93 6.71-8.91 8.29-1.51 4.95-4.74 6.15c-3.23 1.19-3.04 2.49-6.19 6.41s-6.03 4.13-9.03 4.2c-3.01.06-4.33.54-9.52 5.02-5.02.2-9.38 5.03-9.38 5.03s-6.96-.66-9.88.13-2.89 2.36-2.46 6.25-3.59 4.03-7.13 3.62c-3.55-.4-5.66-.85-7.5-2.98-1.84-2.14-4.25-.6-4.71-2.06s1.39-3.33 1.39-3.33 2.45-2.25 2.77-2.66-.91-5.07-.91-5.07l-1.75.44-1.73 2.16s-2.41-4.18-3.08-4.8-1.18-1.52-.86-1.92c.32-.41.59-2.24 1.28-3.77.68-1.52 1.05-.64 1.34 1.24s-.69 3.59-.69 3.59l1.52.77s3.83.43 4.46-.32 1.45-4.1 1.45-4.1l1.84-1.72s.78-2.8 2.34-4.55c1.56-1.74 3.34-.61 3.37-1.04s.57-1.96.31-4.27 1.89-.43 1.89-.43 2.88-.22 2.93-.93 1.57-3.89 1.57-3.89-2.43-1.9-3.13-2.23c-.69-.34-1.15.06-1.15.06s-3.16.2-5.33.55-3.53 3.23-3.97 3.34-2.18 2.41-4.74 2.23c-2.56-.19-4.05.56-6.03 2.27-1.99 1.71-4.67 1.23-4.67 1.23s-.13 3.71-.3 4.13-4.13 5.56-4.13 5.56l2.09 2.65 1.6-2.23s1.28 2.1 1.25 2.44c-.03.35-1.81 3.24-1.81 3.24l2.71 2.06s.53 2.47.41 4.18c-.13 1.71-1.5 2.89-1.5 2.89s.91 1.21.54 2.33-5.3 5.9-5.3 5.9-.86 1.94-1.05 4.5-5.25 7.19-5.25 7.19-9.93 10.57-12.3 11.68c0 0-3.06.78-3.91.71-.85-.06-.76 2.52-.76 2.52l-2.7 1.66-2.56 5.68-4.48 4.53s.24 2.59 1.69 4.27 6.57 5.92 6.57 5.92l-.04 4.43s-3 3.78-3.82 3.29-1.07-6.8-1.07-6.8l-2.5.96s-.68 1.52.07 2.87c.76 1.34-.84 1.65-.84 1.65s-2.36 2.97-3.68 3.3c-1.31.33-2.02-1.72-2.02-1.72l-1.19.63s.43 1.89-.25 3.41-2.93-.93-2.93-.93l-3.08 1.06s1.87 1.85-.33 2.55-1.54-2.4-1.54-2.4-2.59.24-4.43-2.04c-1.83-2.28-.35-3.03-1.2-3.09-.8-.06-.92.59-2.51 2.91l1.85 2.02c.13.14.2.31.2.5 0 .03.07 2.96.56 6.44.43 3.04 3.88 5.3 6.72 6.31 2.59.92 5.18.75 5.89.01 1.06-1.1 8.66-7.92 9.45-8.6.49-.42 1.4-.67 2.85-1.02.83-.2 2.21-.54 2.47-.8.59-.65 1.92-2.18 2.41-2.74.05-1.64.27-3.59 1.06-4.17.97-.72 2.7-.11 3.2.09.12.05.23.12.31.23l3.06 3.75c.11.14.18.32.17.5-.02.94.15 2.54.58 2.99.06.06.08.06.1.06 1.69.03 2.84.64 2.89.66.26.14.42.43.39.72l-.48 6.54c-.02.24-.15.46-.36.59l-.37.23 1.47 1.06c.14.1.25.26.29.43.25.98.68 3.32-.67 3.87-.39.16-1.1.83-1.66 1.42 2.14 2.95 2.14 2.99 2.11 3.32l-.17 2.27 5.64 1.1s2.09.16 3.59 1c.37.21 2.65 1.61 4.01 4.93.4-.12.75-.26.96-.44.81-.7 1.45-4.09 3.33-3.76s-.65 6.25-1.58 8.47 1.17 4.85 1.3 8.3c.13 3.44-.36 2.26 1.95 3.77 2.3 1.5 4.24 2.79 4.24 2.79s-2.31-2.27-3.47-4.64.28-8.94 1.85-9.59 3.04.22 2.15 1.88c-.88 1.65-1.12 4.88-.42 5.69s4.33 3.37 7.66 2.09c.03-3.05 2.54-3.44 5.51-2.26 2.96 1.17.44 4.42.44 4.42s1.33.1 1.58 1.83c.25 1.74-3.39-.63-3.39-.63s-4.71 1.75-6.92 3.3-2.8-.78-2.8-.78l-2.96 3.98s1.61 1.45 2.4 1.13 12.08-3.5 14.81-4.25 5.07-1.53 5.07-1.53.46-3.59 2.22-4.22 1.51 5.45 4.47 6.62 9.86-1.75 13.4-.73c3.55 1.02 8.97 5.05 10.1 2.65-2.43-3.23 4.49-6.53 6.92-8.45s.12-4.19.52-7.02 6.63-1.99 6.01-3.94c-3.35-3.68 2.55-6.11 5.88-7.39 3.34-1.28 10.03 1.12 9.87 4.73-.15 3.61-5.5.55-5.5.55l-.55 7.4s.89 3.5 1.3 5.63c.42 2.13-1.95 3.1-1.95 3.1s3.91 6.39 6.88 7.56c.68-1.48 6.47-2.38 6.47-2.38s-.13-.77-.67-3.86c-.53-3.09 4.96-5.16 4.96-5.16l2.29-5.17s-1.16-2.37-2.9-4.6-.04-2.1-1.15-2.56z" fill="#bfbfbf"/><path d="m196.91 279.51c1.6 1.6 2.2 2.07 2.71 2.25s2.75-1.61 2.75-1.61.56-1.48 2.27-1.55c1.71-.08-.38-3.26-.38-3.26l-2.78.33s.63 1.15-1.1 1.11c-1.72-.04-3.11.61-3.11.61s-1.57.91-.36 2.13z" fill="#bfbfbf"/><path d="m183.13 272.79c-.63.75 2.28-2.47 2.28-2.47l-.31-2.66s3.13-.49 3.85.41-.29 5.91-.29 5.91l-3.47 1.75s-1.59.06-2.23.87-3.24 3.69-3.24 3.69l-3.75.44.37 3.14s-1.87 1.81-2.36 2.85-1.56 2.39-1.56 2.39l-2.66.31-2.33-1.07-1.27-3.53-5.8-1.39-.34-2.86s3.66-1.22 4.69-1.83 1.74-2.9 3.29-3.33c1.54-.43 3.53-.17 3.53-.17s1.45-1.39 2.93-1.69c1.49-.3 3.43-1.51 3.43-1.51l1-1.83 4.58-.66s1.36 1.19-.36 3.23z" fill="#bfbfbf"/></g></svg>