<svg viewBox="0 0 70.37 56.52" xmlns="http://www.w3.org/2000/svg"><path d="m53.21 48.05c-1.29-5-4.56-8.52-8.75-11.24-7.93-5.14-16.73-5.68-25.61-3.89-7.77 1.57-14.39 5.37-17.68 13.12-2.86 6.75-.41 10.34 6.91 10.42 6.25.07 12.51.01 18.76.01v-.02c6.77 0 13.55.15 20.32-.05 5.37-.16 7.39-3.15 6.05-8.36zm-7.72 5.18c-6.25.13-12.5.03-18.75.03-6.08 0-12.16.09-18.23-.03-4.72-.1-5.88-2.04-3.92-6.31.57-1.24 1.38-2.42 2.27-3.46 9.36-10.9 31.05-10.74 40.17.31.87 1.06 1.66 2.25 2.2 3.51 1.79 4.15.76 5.86-3.73 5.95z" fill="#1e1e1e"/><path d="m26.6 0c-7.49.07-12.65 5.64-12.54 13.53.11 7.62 5.75 13.65 12.79 13.67 7.15.03 13.05-6.45 12.91-14.16-.13-7.62-5.68-13.11-13.16-13.04zm-.09 23.77c-4.96-.21-9.34-5.41-9.13-10.84.22-5.5 4.35-9.73 9.52-9.73 5.34 0 9.34 4.51 9.24 10.41-.1 5.8-4.44 10.37-9.63 10.15z" fill="#1e1e1e"/><g fill="none" stroke="#1e1e1e" stroke-linecap="round" stroke-miterlimit="10" stroke-width="5"><path d="m46.9 20.76h20.97"/><path d="m57.38 10.28v20.97"/></g></svg>